<?xml version="1.0" encoding="UTF-8"?>
<svg width="1120px" height="493px" viewBox="0 0 1120 493" version="1.1" xmlns="http://www.w3.org/2000/svg" xmlns:xlink="http://www.w3.org/1999/xlink">
    <!-- Generator: Sketch 59.1 (86144) - https://sketch.com -->
    <title>BBAW_logo</title>
    <desc>Created with Sketch.</desc>
    <g id="Page-1" stroke="none" stroke-width="1" fill="none" fill-rule="evenodd">
        <g id="BBAW_logo" fill-rule="nonzero">
            <g id="Group" transform="translate(735.000000, 0.000000)" fill="#A4ACB1">
                <path d="M189.07,377.59 C174.32,377.33 159.99,375.38 146.28,371.91 L136.03,371.91 C152.8,377.1 170.59,380.03 189.02,380.36 C210.71,380.74 231.61,377.47 251.14,371.13 C248.87,370.99 246.74,370.68 245.06,370.11 C227.32,375.29 208.51,377.93 189.07,377.59 Z" id="Path"></path>
                <path d="M91.41,351.43 C93.1,352.49 94.82,353.53 96.55,354.54 L96.55,351.33 C94.89,350.34 93.25,349.33 91.63,348.29 L91.41,351.43 Z" id="Path"></path>
                <path d="M174.75,249.44 C175.29,250.71 177.07,252.84 177.07,252.84 C177.07,252.84 176.97,250.6 175.62,247.35 C174.28,244.11 173.33,242.41 171.87,240.33 C170.41,238.25 169.69,236.98 169.69,236.98 C169.69,236.98 169.23,236.78 170.35,239.14 C171.47,241.49 173.06,246.7 173.06,246.7 C173.06,246.7 171.39,246.06 169.46,244.54 C167.53,243.01 167.34,243.15 167.34,243.15 C169.96,248.51 174.75,249.44 174.75,249.44 Z" id="Path"></path>
                <path d="M208.78,260.25 C208.65,259.59 207.82,259.07 207.44,259.24 C207.06,259.42 207.57,259.89 207.65,260.64 C207.73,261.39 207.8,262.51 208.25,263.45 C208.7,264.39 209.76,265.16 209.99,265.02 C210.23,264.89 210.34,263.95 209.7,262.87 C209.07,261.8 208.91,260.91 208.78,260.25 Z" id="Path"></path>
                <path d="M215.97,259.72 C216.25,259.63 215.68,257.48 215.38,256.3 C215.07,255.13 214.27,252.92 213.43,253.23 C212.58,253.54 212.89,254.95 213.65,256.64 C214.41,258.34 215.69,259.81 215.97,259.72 Z" id="Path"></path>
                <path d="M204.43,243.89 C205.04,244.88 205.38,245.38 205.47,244.4 C205.56,243.42 205.33,240.48 204.82,237.53 C204.31,234.58 201.9,232.58 201.9,232.58 C203.73,236.25 203.12,238.97 203.12,238.97 C202.24,237.48 197.89,233.91 196.98,233.75 C197.52,234.6 199.79,237.23 200.67,238.99 C201.54,240.76 203.82,242.9 204.43,243.89 Z" id="Path"></path>
                <path d="M207.4,240.11 C207.78,242.4 206.55,248.78 209.83,258.59 C212.27,265.89 217.11,272.2 217.79,272.83 C218.48,273.45 219.46,273.75 218.17,272.32 C216.89,270.9 216.13,268.83 213.89,263.47 C211.65,258.11 210.47,255.99 209.91,247.95 C209.35,239.91 207.61,236.78 207.22,236.05 C206.84,235.32 206.15,235.84 206.51,236.46 C206.89,237.07 207.02,237.82 207.4,240.11 Z" id="Path"></path>
                <path d="M184.26,228.06 C184.26,228.06 184.45,229.11 184.99,230.31 C185.53,231.51 185.58,232.7 186.03,234.67 C186.49,236.64 188.45,240.31 188.45,240.31 C188.45,240.31 187.16,234.06 186.77,232.51 C186.38,230.97 184.26,228.06 184.26,228.06 Z" id="Path"></path>
                <path d="M236.98,164.1 L235.81,164.14 C232.81,168.13 227.97,174.26 222.7,179.73 C214,188.75 201.68,196.8 201.68,196.8 C201.68,196.8 210.84,193.46 223.14,182.33 C230.17,175.98 234.65,168.61 236.98,164.1 Z" id="Path"></path>
                <path d="M239.16,172.01 C239.72,172.16 240.27,172.87 239.36,174.16 C238.45,175.45 236.66,176.59 236.31,177.47 C236.83,177.34 237.19,177.91 236.47,179.11 C235.75,180.31 232.72,183.06 231.73,183.46 C230.74,183.86 230.78,184.24 231.67,184.16 C232.56,184.08 233.16,184.14 232.73,185.25 C232.28,186.36 231.4,189.24 229.01,189.43 C226.62,189.62 226.02,189.71 225.04,189.59 C224.06,189.48 223.54,190.03 224.75,190.24 C225.96,190.45 227.04,190.42 227.26,190.84 C227.49,191.26 226.8,193.02 225.53,193.75 C224.25,194.47 221.44,195.5 220.22,195.48 C219.01,195.46 219.04,195.97 220.07,196.08 C221.09,196.19 222.02,196.3 222.02,196.72 C222.01,197.14 221.49,198.75 220.15,199.67 C218.64,200.72 217.46,201.35 215.69,201.32 C213.91,201.29 212.65,201.5 213.81,201.85 C214.97,202.2 216.04,202.22 216.13,202.59 C216.21,202.97 216.42,204.42 213.56,205.25 C210.7,206.09 207.94,206.74 206.72,206.44 C205.51,206.14 205.32,206.74 206.01,207.08 C206.27,207.21 206.64,207.32 206.99,207.42 L213.31,207.42 C215.42,206.6 217.73,205.12 217.85,202.53 C217.85,202.53 223.53,200.39 223.88,196.52 C223.88,196.52 228.62,195.11 229.86,190.75 C229.86,190.75 234.85,188.83 234.09,183.92 C234.09,183.92 238.7,181.99 238.64,177.28 C238.64,177.28 241.44,174.67 241.15,172.47 C241.15,172.47 247.9,170.96 247.59,164.84 C247.59,164.84 248.07,164.6 248.72,164.13 L248.75,164.13 C250.47,162.94 253.33,160.3 252.03,156.51 C252.03,156.51 255.87,152.99 252.87,150.83 C252.95,151.58 252.24,155.16 249.54,156.93 C250.2,156.76 251.31,157.47 251.01,158.64 C250.71,159.8 250.64,161.01 248.42,162.37 C246.69,163.43 246.2,163.47 245.59,164.08 L245.57,164.08 C245.41,164.24 245.23,164.45 245.02,164.74 C245.72,164.75 246.41,165.37 245.88,166.57 C245.34,167.78 244.75,169.68 242.96,170.39 C241.17,171.11 240.1,171.18 239.22,171.12 C238.34,171.06 238.61,171.86 239.16,172.01 Z" id="Path"></path>
                <path d="M227.99,207.43 L229.45,207.42 C228.51,207.31 227.66,207.1 227.26,207.04 C227.39,207.12 227.66,207.27 227.99,207.43 Z" id="Path"></path>
                <path d="M185.92,207.43 C187.2,209.2 188.22,210 188.22,210 C188,209.07 187.69,208.21 187.34,207.43 L187.34,207.43 C185.64,203.64 182.84,201.58 182.84,201.58 C183.79,204.13 184.92,206.05 185.9,207.43 L185.92,207.43 Z" id="Path"></path>
                <path d="M165.9,169.01 C169.11,167.61 169.68,166.03 169.88,164.1 L165.16,164.12 C163.74,164.51 161.92,164.99 160.92,165.49 C159.44,166.23 155.69,168.41 154.27,169.5 C154.27,169.5 158.86,167.41 160.05,166.94 C160.06,166.94 162.52,170.48 165.9,169.01 Z M166.88,164.89 C166.88,164.89 167.66,164.41 168.5,164.64 C168.5,164.64 168.6,166.88 166.28,167.68 C166.27,167.68 167.28,166.37 166.88,164.89 Z M162.59,166.14 C163.07,166.99 164.52,168 164.52,168 C162.34,168.38 161.6,166.62 161.6,166.62 L162.59,166.14 Z" id="Shape"></path>
                <path d="M264.9,201.05 C265.8,201.42 272.12,203.98 277.47,206.45 C278.22,206.8 278.95,207.13 279.66,207.43 L284.83,207.43 C283.86,207.1 282.68,206.66 281.19,206.1 C275.55,203.97 266.02,200.79 265.04,200.5 C264.07,200.19 263.99,200.68 264.9,201.05 Z" id="Path"></path>
                <polygon id="Path" points="131.31 120.66 130.1 116.67 133.51 114.28 129.34 114.2 128.12 110.21 126.76 114.16 122.59 114.09 125.92 116.6 124.57 120.54 127.98 118.15"></polygon>
                <path d="M79.95,147.97 C79.95,147.97 79.69,154.76 87.23,156.22 C87.23,156.22 88.95,162.06 93.21,162.34 C93.21,162.34 93.46,163.15 94,164.1 L94.17,164.1 L94,164.1 C94.75,165.41 96.07,166.97 98.1,167.05 C98.1,167.05 98.34,169.57 102.58,171.26 C102.58,171.26 102.29,175.66 107.31,176.8 C107.31,176.8 107.17,180.72 111.35,182.26 C111.35,182.26 110.1,185.74 115.05,186.95 C115.05,186.95 114.64,190.79 117.77,191.69 C117.77,191.69 116.44,195.94 120.54,197.48 C120.54,197.48 119.9,202.23 124.57,203.29 C124.57,203.29 124.35,206.11 126.68,207.43 L132.41,207.41 C132.68,206.64 133.49,206.04 134.12,205.56 C135.11,204.81 134.2,205 133.78,205.27 C133.36,205.55 129.68,207.58 127.97,205.31 C126.26,203.04 128.6,201.19 130.23,200.31 C131.86,199.43 130.45,199.61 129.82,200.02 C129.18,200.43 124.8,202.81 123.37,200.54 C121.94,198.27 125.55,196.17 126.32,195.9 C127.09,195.63 126.75,195.14 126.04,195.47 C125.33,195.81 121.26,196.51 120.67,194.54 C120.07,192.57 121.44,190.7 123.13,190.1 C124.82,189.5 123.07,189.19 122.79,189.46 C122.51,189.74 118.42,191.35 117.62,188.95 C116.82,186.56 117.81,185.73 118.73,185.26 C119.65,184.79 118.89,184.35 118.25,184.69 C117.61,185.03 114.66,185.61 113.78,184.19 C112.89,182.78 114.68,180.78 115.46,180.23 C116.24,179.68 115.75,179.53 115.05,179.87 C114.34,180.21 111.1,181.34 110.09,179.15 C109.08,176.96 110.57,175.66 111.42,175.25 C112.27,174.85 111.92,174.42 111.14,174.83 C110.36,175.24 106.92,176.16 105.63,173.61 C104.35,171.07 106.33,169.42 107.33,168.88 C108.32,168.34 107.48,167.97 106.85,168.38 C106.21,168.79 102.84,169.64 101.33,168.07 C99.82,166.5 99.98,165.46 100.48,164.9 C100.98,164.35 100.84,164.28 100.06,164.61 C99.31,164.93 97.47,165.11 96.36,164.08 L96.32,164.08 C96.29,164.05 96.25,164.02 96.22,163.99 C95.12,162.85 95.71,161.7 97.81,160.87 C98.66,160.53 98.52,160.18 97.54,160.3 C96.56,160.43 91.85,161.18 90.71,158.36 C89.57,155.54 90.78,154.44 92.25,154.26 C93.73,154.08 92.82,153.64 92.12,153.7 C91.42,153.76 84.06,154.47 83.13,151.65 C82.2,148.83 83.56,147.32 85.59,147.14 C87.62,146.97 86.3,146.66 85.53,146.65 C84.76,146.64 78.11,146.87 78.66,142.96 C79.22,139.05 80.54,139.63 81.73,139.65 C82.92,139.67 82.65,139.11 81.6,138.95 C80.55,138.79 77.41,138.04 77.74,135.66 C78.06,133.28 79.13,132.25 79.91,131.85 C80.69,131.44 80.48,131.23 79.43,131.42 C78.38,131.61 73.66,132.79 77.4,139.36 C77.37,139.39 74.06,144.3 79.95,147.97 Z" id="Path"></path>
                <path d="M384.71,144.03 C384.46,142.63 382.13,142.02 378.5,141.64 L376.25,141.49 C375.4,138.29 374.47,135.13 373.47,132 C375.12,131.24 376.24,130.49 376.19,129.79 C376.1,128.74 374.31,128.15 372.09,127.86 C346.67,54.62 277.69,1.47 195.66,0.04 C108.54,-1.49 34.09,55.8 10.18,135.32 C5.94,135.77 2.36,136.78 2.13,138.63 C1.86,140.78 5.44,141.21 8.4,141.62 C7.88,143.6 7.39,145.59 6.93,147.6 C3.53,148.57 0.47,150.23 0.499781238,151.21 C0.53,152.3 2.36,153.51 5.55,154.16 C4.92,157.44 4.38,160.74 3.92,164.09 L3.92,164.09 C2.9,171.55 2.3,179.16 2.17,186.87 C2.05,193.8 2.3,200.66 2.91,207.42 L2.91,207.42 C7.28,256.08 30.03,299.58 64.26,330.79 L68.41,330.79 C33.46,299.96 10.14,256.32 5.69,207.42 L3.55,207.41 L5.69,207.38 C5.08,200.65 4.82,193.82 4.94,186.91 C5.07,179.18 5.67,171.57 6.81,164.1 L6.81,164.1 C7.3,160.89 7.88,157.71 8.57,154.56 C13.6,154.93 20.17,156.02 24.04,158.75 C24.04,158.75 20.67,159.25 17.07,160.94 C14.37,162.21 13.13,163.26 12.76,164.1 L15.24,164.11 L12.76,164.13 C12.64,164.42 12.61,164.68 12.66,164.93 C12.85,165.91 14.45,166.57 17.95,166.42 C21.45,166.27 24.04,166.39 26.76,166.99 C29.48,167.6 30.79,168.46 31.91,168.48 C31.91,168.48 31.26,169.31 29.36,170.47 C27.45,171.63 25.89,172.93 27.83,173.59 C29.78,174.26 35.5,175.48 39.5,175.2 C43.5,174.92 45.32,174.6 45.32,174.6 C45.32,174.6 40.14,178.64 40.88,180.4 C41.62,182.16 44.98,182.22 47.78,182.2 C50.58,182.18 52.62,181.58 52.62,181.58 C52.62,181.58 53.28,183.69 54.88,184.49 C56.48,185.29 61.64,186.22 62.21,185.88 C62.21,185.88 62.86,188.9 64.52,189.77 C66.19,190.64 68.48,191.66 70.52,190.78 C70.52,190.78 71.19,192.75 72.84,194.11 C74.49,195.47 76.24,195.78 77.22,196.01 C77.22,196.01 77.81,198.54 78.84,199.47 C79.87,200.4 82.1,201.35 83.49,201.44 C83.49,201.44 83.94,203.55 85.46,204.91 C86.98,206.27 89.14,206.72 89.14,206.72 C89.14,206.72 89.2,207 89.32,207.42 L91.69,207.39 C91.57,207.08 91.56,206.81 91.66,206.62 C92.09,205.86 95.24,205.84 98.49,204.5 C101.73,203.16 104.28,201.87 104.92,201.11 C105.56,200.35 105.36,200.14 104.51,200.62 C103.66,201.09 93,206.3 90.23,204.5 C87.46,202.7 86.57,201.78 87.21,200.88 C87.86,199.98 90.87,199.89 93.27,198.89 C95.67,197.88 100.39,196.15 101.24,195.53 C102.09,194.91 101.47,194.55 100.69,194.89 C99.91,195.23 86.3,201.15 83.53,199.56 C80.76,197.97 79.79,197.19 80.37,196.15 C80.95,195.11 84.45,194.82 88.19,193.42 C91.93,192.02 96.16,190.34 96.86,189.86 C97.57,189.38 97.16,188.6 96.17,189.15 C95.18,189.69 81.5,195.19 78.3,194.02 C75.1,192.84 72.81,191.47 73.46,190.78 C74.1,190.09 76.35,189.85 80.08,188.24 C83.82,186.63 89.24,184.62 90.1,183.94 C90.95,183.26 90.54,182.9 89.62,183.37 C88.7,183.84 72.06,190.62 69.14,189.45 C66.22,188.28 63.86,186.98 64.44,185.94 C65.02,184.9 69.93,184.15 73.31,183.08 C76.69,182.02 82.39,180.3 83.66,179.83 C84.93,179.36 85.22,178.88 83.18,179.26 C81.14,179.64 61.3,185.46 58.53,184.01 C55.76,182.56 53.94,182.18 54.66,181.14 C55.38,180.1 78.54,174.41 80.56,173.26 C82.12,172.38 81.77,172.02 80.29,172.69 C78.81,173.36 69.52,176 61.16,177.75 C52.8,179.49 44.09,180.88 43.98,179.41 C43.86,177.94 49.94,174.96 54.24,173.36 C58.54,171.75 74.07,168.25 75.76,167.71 C77.45,167.18 77.32,166.48 75.63,167.08 C73.94,167.68 49.9,173.28 40.66,173.26 C31.42,173.24 28.21,172.55 35.53,170.23 C42.85,167.91 50.94,166.62 58.86,165.18 C61.09,164.77 62.9,164.43 64.38,164.12 L64.47,164.12 C68.31,163.37 69.97,162.96 71.08,162.73 C72.63,162.41 72.15,161.77 70.74,162.17 C69.7,162.46 60.99,163.34 53.47,164.11 L58.08,164.12 L53.47,164.13 C50.78,164.41 48.24,164.68 46.26,164.9 C38.76,165.75 34.83,166.31 33.09,165.72 C31.35,165.13 24.93,164.11 21.57,164.26 C19.68,164.35 17.72,164.36 17.05,164.12 L17.01,164.12 C16.56,163.94 16.84,163.62 18.45,163.09 C22.25,161.83 32.87,159.07 38.83,158.82 C44.79,158.57 62.45,156.99 64.63,156.75 C66.8,156.51 65.21,155.64 64.3,155.76 C63.39,155.88 31.86,157.08 28.08,157.3 C28.08,157.3 22.18,154.54 17.16,153.12 C12.14,151.7 3.25,152.25 3.26,151.34 C3.28,150.43 7.43,149.24 12.26,148.91 C17.1,148.57 56.79,148.85 60.07,148.9 C63.36,148.96 62.47,148.1 60.37,147.99 C58.27,147.88 39.59,147.21 36.51,147.22 C33.43,147.24 28.69,145.89 26.4,144.87 C24.11,143.85 16.74,140.5 14.37,140.11 C12,139.72 6.33,139.48 6.42,138.43 C6.51,137.38 14.08,136.6 17.23,136.73 C20.38,136.86 28.56,137.28 34.85,138.02 C41.14,138.76 55.05,139.91 57.64,140.24 C60.22,140.57 59.47,139.85 57.72,139.54 C55.98,139.23 39.42,137.12 36.77,136.37 C34.12,135.62 30.05,132.47 26.92,131.09 C23.8,129.7 20.87,128.6 20.89,127.9 C20.9,127.2 25.03,127.27 29.57,127.84 C34.11,128.41 58.54,132.41 60.01,132.64 C61.48,132.88 61.76,132.39 60.09,131.94 C58.42,131.49 43.97,129.21 40.58,126.91 C37.19,124.61 34.89,123.87 35.18,123.18 C35.47,122.48 40.51,122.5 47.92,123.4 C55.33,124.3 64.91,124.54 80.53,128.1 C96.15,131.66 107.22,135.08 109.15,137 C111.08,138.92 112.29,141.6 113.69,145.55 C114.87,148.88 118.76,157.6 122.36,164.1 L126.2,164.07 C126.12,163.94 126.05,163.81 125.98,163.68 C115.38,145.36 115.5,138.3 113.92,136.73 C112.34,135.16 109.71,133.23 97.8,130.08 C85.88,126.93 69.91,123.29 57.06,121.74 C44.21,120.18 31.05,119.81 30.74,121.63 C30.43,123.45 36.6,126.85 36.6,126.85 C36.6,126.85 28.15,125.51 25.14,125.46 C22.13,125.41 18.62,126.19 18.1,127.79 C17.58,129.39 20.98,131.13 22.79,131.79 C24.6,132.45 29.38,134.98 30.7,135.85 C30.7,135.85 22.03,135 15.87,135.03 L13.17,135.1 C37.03,57.26 110.14,1.3 195.61,2.8 C276.02,4.2 343.72,56.04 369.07,127.63 C368.16,127.61 367.27,127.62 366.47,127.65 C362.68,127.82 345.2,129.7 338.59,131.22 C338.59,131.22 341.15,128.7 344.31,127.02 C347.47,125.35 359.56,122.11 358.96,119.16 C358.36,116.21 344.78,118.49 338.98,119.7 C333.17,120.91 322.25,123.52 322.25,123.52 C322.25,123.52 330.33,117.78 329.89,116.56 C329.44,115.34 318.87,116.74 310.85,118.65 C302.84,120.56 276.62,127.04 246.42,136.38 C244.23,137.06 243.02,138.91 242,140.71 C240.99,142.51 234.04,156.04 228.87,163.51 C228.74,163.69 228.62,163.87 228.49,164.07 L228.48,164.07 C223.29,171.38 215.31,179.12 204.69,185.56 C193.79,192.16 187.88,194.16 186.41,194.13 C184.94,194.11 180.33,189.75 176.91,184.93 C173.49,180.11 172.33,178.69 172.04,175.39 C172.04,175.39 177.89,172.9 180.49,168.74 C180.49,168.74 182.1,168.63 181.69,172.12 C181.69,172.12 184.8,170.49 184.9,164.48 C184.9,164.35 184.9,164.21 184.9,164.07 L184.9,164.07 C184.68,158.48 177.79,158.89 177.79,158.89 C177.79,158.89 174.99,159.05 171.82,159.91 C171.82,159.91 171.15,158.01 169.05,158.25 C166.95,158.49 164.77,158.88 160.03,161.66 C158.56,162.52 157.21,163.34 156.01,164.07 L158.67,164.08 L156.01,164.1 C153.33,165.78 151.32,167.17 150.05,168.06 C148.21,169.36 150.09,169.95 150.22,170.37 C150.35,170.79 149.6,173.65 148.67,179.16 C147.73,184.67 146.84,187.81 146.84,187.81 C146.84,187.81 136.73,182.04 126.21,164.06 L122.37,164.07 C123.03,165.27 123.69,166.4 124.31,167.4 C128.33,173.84 136.6,185.05 146.36,191.59 C146.36,191.59 144.99,202.14 145.43,205.02 C145.43,205.02 142.1,203.14 141.65,201.31 C141.65,201.31 137.38,200.95 136.89,196.95 C136.89,196.95 133.13,195.48 132.99,191.49 C132.99,191.49 128.18,190.29 127.42,185.44 C127.42,185.44 122.28,183.32 122.51,178.28 C122.51,178.28 116.4,175.37 117.25,170.84 C117.25,170.84 111.46,169.49 111.24,164.06 L109.37,164.1 C109.6,164.2 109.84,164.28 110.08,164.35 C110.08,164.35 110.53,170.66 115.47,172.57 C115.47,172.57 117.11,178.69 121.08,180.23 C121.08,180.23 122.67,185.58 126.22,186.83 C126.22,186.83 127.47,191.47 131.77,193.51 C131.77,193.51 132.83,197.31 135.61,198.2 C135.61,198.2 137.9,203.14 141.4,203.13 C141.4,203.13 142.47,206.02 145.68,206.85 C145.68,206.85 145.7,207.07 145.73,207.4 L148.77,207.38 C148.15,198.32 148.62,191.13 150.35,183.96 C151.4,179.63 152.75,169.71 152.74,168.6 C153.05,168.56 155.35,166.75 160.37,164.09 L160.41,164.09 C160.48,164.05 160.56,164.02 160.63,163.98 C166.49,160.93 170,160.36 170.27,161.21 C170.53,162.06 167.99,163.2 166.87,163.6 C166.5,163.73 165.9,163.9 165.2,164.07 L169.92,164.05 C169.93,163.94 169.94,163.83 169.95,163.72 C169.95,163.72 170.28,163.65 170.38,164.07 L172.37,164.07 C172.8,162.43 173.01,160.98 173.01,160.98 C173.01,160.98 176.32,159.85 178.77,159.89 C181.15,159.93 183.35,162.21 183.45,164.07 C183.45,164.12 183.45,164.18 183.45,164.24 C183.42,166.13 182.63,167.45 182.63,167.45 C180.36,164.89 178.95,165.57 175.78,166.56 C172.61,167.55 169.05,171.06 167.84,172.23 C166.63,173.4 167.11,173.97 167.11,173.97 C168.16,173.57 175.81,168.94 177.22,168.19 C178.63,167.44 179.13,167.1 179.13,167.1 C178.53,169.12 175.71,170.61 172.03,172.79 C168.35,174.97 164.76,175.95 164.76,175.95 C164.91,171.19 170.07,168.55 171.7,167.46 C173.33,166.37 175.45,165.36 175.38,165.07 C175.31,164.79 171.5,166.61 171.5,166.61 C171.85,165.82 172.13,164.91 172.36,164.06 L170.37,164.08 C170.41,164.25 170.41,164.49 170.35,164.84 C170.12,166.1 169.82,167 169.81,167.63 C169.81,167.63 166.84,169.33 165.83,170.99 C164.82,172.65 162.97,174.51 164.16,178.45 C164.16,178.45 165.72,177.08 166.92,176.68 L169.66,175.82 C169.66,175.82 171.32,180.75 175.42,186.77 C179.51,192.79 182.81,196.28 183.78,197 C184.75,197.72 187.69,197.49 191.07,196.29 C194.45,195.09 212.95,185.96 222.52,175.21 C225.75,171.57 228.72,167.81 231.4,164.07 L230.22,164.06 L231.4,164.06 C236.65,156.71 240.82,149.37 243.8,143.03 C243.8,143.03 244.48,140.17 249.06,138.92 C253.63,137.67 274.69,129.99 288.9,126.24 C303.11,122.5 322.08,118.7 324.94,118.89 C324.44,119.37 322.93,121.59 317.02,123.72 C311.1,125.86 295.41,130.41 286.56,132.08 C286.56,132.08 286.13,132.56 287.6,132.31 C289.08,132.06 310.71,127.88 323.44,125.02 C336.16,122.16 355.89,118.73 356.08,119.78 C356.27,120.83 350.78,122.63 347.68,123.55 C344.59,124.48 341.56,125.61 337.94,128.28 C334.32,130.95 332.42,132.03 326.72,133.19 C321.03,134.35 294.9,139.64 294.26,140.39 C294.96,140.33 323.18,135.57 334.55,133.74 C345.93,131.91 371.25,128.78 371.23,130.18 C371.2,131.58 366.22,132.2 361.57,134.42 C356.91,136.65 352.02,139.57 348.51,140.42 C344.99,141.27 343.79,142.02 334.04,142.76 C324.3,143.5 296.11,146.3 295.4,146.84 C295.96,146.85 330.57,145.14 344.66,144.48 C358.74,143.81 381.15,143.16 381.35,144.14 C381.54,145.12 377.39,146.03 372.68,147.42 C367.96,148.81 364.99,150.37 361.83,151.22 C358.67,152.07 353.82,153.18 345.56,153.11 C337.3,153.04 295.16,152.86 294.1,152.98 C293.05,153.1 293.26,153.39 294.1,153.47 C294.94,153.55 324.81,154.5 338.31,154.87 C351.82,155.25 375.68,155.8 375.73,156.85 C375.78,157.9 372.84,158.13 371.3,158.24 C369.76,158.35 365.97,158.57 363.37,159.29 C360.77,160.02 357.79,162.13 353.44,162.55 C349.1,162.97 347.12,163.77 338.66,163.06 C330.2,162.35 291.96,159.65 291.11,160.06 C291.67,160.13 312.42,162.63 325.49,164.03 L349.81,164.04 L325.49,164.06 C327.03,164.23 328.46,164.38 329.75,164.51 C341.91,165.77 355.12,166.84 354.95,168.17 C354.79,169.5 351.44,169.09 348.56,169.53 C345.68,169.97 343.71,170.7 340.34,170.99 C336.98,171.28 335.99,171.69 330.4,171.17 C324.81,170.65 285.4,166.33 284.01,166.09 C282.61,165.85 282.88,166.56 283.92,166.72 C284.97,166.88 302.34,170.19 315.76,171.96 C329.16,173.73 338.24,175.01 338.3,175.72 C338.36,176.42 335.61,177.35 332.94,178.36 C330.26,179.36 328.77,180.39 325.83,180.48 C322.88,180.57 311.29,179.18 302.99,177.28 C294.69,175.38 280.32,172.4 279.14,172.17 C277.95,171.94 278.01,172.43 278.99,172.73 C279.96,173.03 295.71,177.43 303.03,179.1 C310.35,180.77 314.18,181.68 317.54,182.23 C320.89,182.78 322.35,182.94 322.48,183.64 C322.61,184.34 321.26,185.23 318.16,186.36 C315.06,187.5 312.32,188.08 307.51,187.08 C302.7,186.09 282.31,181.55 275.86,179.74 C276.62,180.11 287.61,184.15 297.57,186.91 C307.54,189.67 312.77,190.4 312.76,190.89 C312.76,191.38 312.26,191.58 310.5,192.32 C308.74,193.06 307.23,194.78 304.09,194.45 C300.95,194.12 276.83,188.6 273.75,187.97 C272.64,187.74 272.63,188.16 273.67,188.39 C274.72,188.62 284.94,192.58 292.06,194.17 C299.17,195.76 305.59,196.58 305.66,197 C305.72,197.42 304.58,198.59 303.24,199.41 C301.89,200.23 299.77,201.31 297.19,201.12 C294.6,200.93 270.62,195.06 269.36,194.75 C268.11,194.45 268.59,194.95 269.21,195.17 C269.84,195.39 294.85,202.69 295.89,202.99 C296.94,203.29 297.63,203.65 296.92,204.27 C296.4,204.72 295.1,206.37 293.22,207.36 L293.21,207.36 C292.54,207.72 291.78,207.99 290.96,208.09 C288.69,208.36 287.53,208.27 284.84,207.36 L279.67,207.37 C283.96,209.29 287.2,210.56 287.55,211.1 C287.96,211.74 287.52,213.13 286.52,214.02 C285.52,214.91 284.73,216.3 281.32,214.98 C278.47,213.88 268.27,209.23 264.46,207.35 L264.19,207.35 L264.46,207.35 C263.71,206.98 263.2,206.72 263.06,206.61 C262.15,205.96 262.42,206.88 262.84,207.1 C262.88,207.13 263.02,207.21 263.22,207.36 L263.24,207.36 C264.75,208.37 270.02,212.03 273.43,213.87 C277.31,215.97 281.07,217.65 282.18,217.95 C283.29,218.25 282.72,219.29 282.15,219.84 C281.58,220.39 279.51,222.46 277.9,222.57 C276.29,222.68 271.35,220.49 268.59,218.56 C265.82,216.62 259.99,214.07 259.14,214.19 C259.7,214.48 264.46,218.27 268.13,220.72 C271.8,223.16 274.85,224.62 276.11,224.85 C277.37,225.08 278.56,225.03 278.12,225.79 C277.69,226.56 277.09,228.92 274.77,229.17 C272.46,229.41 270.02,228.94 264.13,225.41 C258.24,221.87 256.23,220.93 255.31,221.12 C255.73,221.41 260.63,225.27 263.12,227.07 C265.61,228.86 268.86,230.74 270.33,231.19 C271.79,231.63 272.54,232.77 271.05,234.21 C269.55,235.65 268.81,237.67 263.62,234.64 C258.42,231.61 251.98,227.79 251.29,227.07 C250.6,226.36 250.58,227.34 250.93,227.63 C251.27,227.92 255.54,232.4 258.71,234.62 C261.9,236.85 263.78,237.44 264.54,237.73 C265.31,238.02 265.79,238.66 264.79,239.28 C263.81,239.89 262.45,241.55 258.77,239.6 C255.09,237.64 248.94,233.41 247.76,232.82 C246.58,232.24 246.15,232.44 247.26,233.3 C248.36,234.16 251.18,237.64 253.73,239.36 C256.29,241.08 258.52,241.83 258.65,242.39 C258.78,242.96 257.14,244.67 255.39,244.79 C253.64,244.91 249.54,243.15 245.6,240.21 C241.66,237.27 240.68,236.91 241.37,237.97 C242.05,239.03 245.27,243.08 247.21,244.3 C249.14,245.52 250.6,246.18 250.6,246.74 C250.59,247.3 249.09,248.39 247.41,248.36 C245.74,248.33 244.77,247.47 241.65,245.46 C238.54,243.44 236.13,241.37 235.58,240.87 C235.03,240.37 235.02,240.72 235.36,241.29 C235.7,241.86 238.36,245.68 239.88,246.97 C241.4,248.25 242.79,248.91 242.78,249.33 C242.77,249.75 240.04,249.84 238.09,249.18 C236.14,248.52 231.6,244.17 230.49,243.31 C229.39,242.45 229.1,242.8 229.86,243.58 C230.61,244.36 233.89,249.11 234.86,249.76 C235.83,250.41 236.31,250.91 234.91,250.88 C233.51,250.86 232.24,251.39 230.44,250.31 C228.64,249.23 226.03,246.45 225.2,245.74 C224.37,245.02 224.02,245.23 224.77,246.15 C225.52,247.08 227.09,249.34 226.66,250.04 C226.23,250.73 224.12,251.32 222.53,249.83 C220.95,248.33 219.98,247.47 220.32,248.32 C220.66,249.17 220.42,250.42 219.24,250.12 C218.06,249.82 217.65,249.25 217.65,249.25 C217.65,249.25 216.36,242.93 213.39,236.64 C210.42,230.36 205.44,222.92 205.44,222.92 C205.44,222.92 213.14,227.11 217.91,222.09 C217.91,222.09 222.09,223.14 224.36,217.86 C224.36,217.86 228.01,217.29 229.69,213.68 C229.69,213.68 233.42,212.34 234.06,208.02 C234.06,208.02 234.39,207.79 234.82,207.38 L234.07,207.38 L234.82,207.38 C235.67,206.56 236.93,205.01 236.88,203.11 C236.88,203.11 240.84,200.38 240.06,197.07 C240.06,197.07 243.05,194.46 242.38,192.42 C242.38,192.42 245.71,190.38 246,185.83 C246,185.83 248.34,183.7 248.82,180.7 C248.82,180.7 252.66,176.99 251.77,171.93 C251.77,171.93 256.58,169.21 256.79,165.16 C256.79,165.16 257.47,164.79 258.27,164.09 L258.3,164.09 C259.36,163.17 260.6,161.68 260.59,159.77 C260.59,159.77 266.02,157.55 265.61,153.28 C265.61,153.28 272.93,151.17 270.49,146.16 C270.49,146.16 277.84,142.37 270.33,139.65 C270.81,140.15 272.24,142.06 271.45,143.24 C270.66,144.41 268.75,145.57 266.72,145.4 C264.7,145.23 265.31,146.22 266.15,146.3 C266.99,146.39 268.18,146.41 268.52,146.69 C268.87,146.98 269.61,148.46 268.68,149.56 C267.75,150.67 263.03,152.4 261.97,153.09 C262.74,153.1 263.86,153.26 263.55,154.59 C263.25,155.92 262.6,157.16 260.63,157.69 C258.66,158.22 258.73,158.01 257.81,158.55 C258.65,158.84 260.07,160.13 258.07,162.01 C256.58,163.42 256.2,163.85 255.46,164.09 L257.11,164.11 L255.46,164.13 C255.21,164.22 254.92,164.29 254.53,164.38 C252.99,164.73 252.66,164.77 252.28,165.04 C252.79,165.14 253.71,165.81 254.88,165.65 C254.88,165.65 255.99,166.18 254.33,168.11 C252.66,170.04 250.83,170.76 249.19,170.78 C247.56,170.8 247.24,170.61 248.11,171.04 C248.99,171.47 250.43,171.87 250.36,173.36 C250.29,174.85 249.78,177.6 248.78,178.56 C247.78,179.52 247.73,179.94 246.22,180.48 C244.72,181.01 243.83,181 243.18,180.99 C243.92,181.38 245.45,181.96 245.96,181.83 C246.48,181.7 245.95,183 245.23,183.73 C244.52,184.46 243.24,185.56 242.26,185.5 C241.28,185.43 240.73,185.29 240.26,185.32 C240.77,185.7 241.82,186.84 243.74,186.5 C243.74,186.5 244.43,186.79 243.47,188.59 C242.5,190.39 241.83,191.69 240.75,191.67 C239.68,191.65 237.68,191.01 236.85,191 C237.4,191.48 239.94,192.83 240.55,192.84 C241.15,192.85 240.86,193.45 240.48,194 C240.1,194.55 239.18,196.41 238.2,196.62 C237.21,196.83 237.39,197.12 235.68,196.53 C233.96,195.94 233.86,195.94 233.44,196.03 C233.9,196.5 234.4,197.35 235.93,197.66 C237.47,197.97 238.64,197.89 238.06,198.96 C237.48,200.02 236.28,202.06 234.55,202.21 C232.82,202.37 231.2,201.68 230.6,201.16 C230,200.64 229.72,200.91 230.41,201.58 C231.1,202.24 233.4,203.87 234.1,203.88 C234.8,203.89 234.93,204.22 234.26,205.19 C233.67,206.04 232.89,207.07 231.69,207.4 L231.64,207.4 C231.5,207.43 231.35,207.46 231.19,207.47 C230.63,207.51 230.03,207.48 229.47,207.41 L228.01,207.44 C229.01,207.98 230.62,208.77 231.21,208.78 C232.01,208.79 231.95,209.59 231.38,210 C230.81,210.41 229.24,212.39 227.28,212.22 C225.32,212.05 223.53,210.33 222.51,210.32 C223.02,210.66 226.15,212.86 226.8,213.15 C227.45,213.44 227.44,213.86 226.87,214.32 C226.3,214.77 224.09,216.14 222.83,215.97 C221.57,215.81 217.65,213.5 217,212.69 C216.36,211.88 216.35,212.49 216.81,213.11 C217.26,213.73 220.02,216.39 220.9,216.87 C221.78,217.35 222.43,217.46 221.48,218.56 C220.53,219.66 219.02,220.71 216.65,219.97 C214.28,219.23 211.53,216.75 210.32,216.4 C210.68,216.92 211.96,218.62 213.39,219.67 C214.82,220.72 215.84,220.97 215.83,221.44 C215.82,221.9 214.27,222.63 212.36,222.45 C210.45,222.28 207.43,221.81 204.44,219.09 C201.45,216.38 200.39,215.52 197.94,211.42 C197.94,211.42 201.82,213.59 205.11,212.39 C208.4,211.19 209.9,208.32 209.9,208.32 C209.9,208.32 211.55,208.11 213.34,207.42 L207.02,207.43 C207.6,207.61 208.14,207.79 208.08,208.05 C207.98,208.47 206.28,209.79 203.98,210.27 C201.69,210.74 195.98,208.82 195.06,207.96 C194.14,207.11 194.22,207.67 194.49,208.75 C194.75,209.83 196.05,212.44 197.82,215.34 C199.59,218.24 204.64,225.96 207.89,232.32 C211.14,238.68 214.19,248.18 215.99,253.18 C217.79,258.18 223.01,264.08 224.11,265.43 C225.21,266.78 226.15,268.9 223.6,266.82 C221.05,264.74 219.24,263.8 218.29,262.53 C217.33,261.25 217.31,262.23 217.72,263.22 C218.12,264.21 219.56,265.91 219.27,266.33 C218.98,266.74 216.06,265.43 215.91,266.06 C215.76,266.69 218.4,267.64 219.3,268.5 C220.19,269.35 225.02,273.99 226.16,276.81 C226.16,276.81 223.96,278.59 219.74,275.72 C215.52,272.85 210.79,267.23 210.45,266.74 C210.11,266.25 210.1,266.88 210.23,267.37 C210.36,267.86 212.94,276.66 213.95,278.64 C213.95,278.64 211.66,277.48 211.38,277.26 C211.1,277.05 212.05,279.16 214.17,281.65 C216.3,284.14 216.68,286.45 216.68,286.45 C216.68,286.45 214.27,284.17 213.08,284.15 C213.56,284.65 216.27,289.74 215.66,292.88 C215.66,292.88 213.17,291.09 211.11,288.6 C211.11,288.6 211.61,291.83 210.81,293.91 C210.81,293.91 208.17,292.75 207.39,289.3 C207.39,289.3 205.71,293.19 205.62,294.73 C205.62,294.73 204.52,293.59 204.97,291.43 C205.43,289.27 205.79,288.85 205.67,287.66 C205.55,286.47 204.05,284.41 204.05,284.41 C204.05,284.41 204.99,282.68 204.67,280.78 C204.35,278.88 203.21,276.2 198.85,273.4 C194.49,270.59 189.17,258.6 188.24,255.5 C187.31,252.4 186,251.75 186,251.75 L186.31,253.72 C186.44,254.42 186.48,256.03 187.15,257.86 C187.82,259.69 188.67,263 188.67,263 C188.67,263 186.45,261.77 183.98,259.28 C181.5,256.79 179.29,255.28 179.29,255.28 C179.29,255.28 180.51,257.68 182.57,259.82 C184.63,261.96 185.92,264.08 187.86,265.59 C189.79,267.09 193.79,270.8 194.74,276.63 C194.74,276.63 193.51,275.21 191.85,273.78 C191.85,273.78 193.52,278.36 193.54,281.09 C193.54,281.09 192.44,279.53 190.79,278.38 C190.79,278.38 192.37,283.8 192.36,288.49 C192.36,288.49 191.19,287 190.02,286 C190.02,286 190.96,292.39 191.05,294.84 C191.05,294.84 189.02,290.88 187.56,290.44 C186.1,290 186.02,290.48 185.25,290.47 C184.48,290.46 183.46,288.83 183.04,288.82 C182.62,288.81 182.38,290.21 182.38,290.77 C182.38,290.77 181.16,288.58 182.34,284.82 C182.34,284.82 184.61,287.17 185.08,288.37 C185.08,288.37 185.6,286.42 184.53,283.81 C183.46,281.2 183.15,278.46 183.75,276.51 C183.75,276.51 184.93,277.37 186.68,277.12 C186.68,277.12 183.92,274.83 183.01,270.83 C183.01,270.83 185.88,270.81 188.63,273.8 C188.63,273.8 187.77,271.13 184.59,268.48 C181.42,265.84 172.61,260.92 170.77,254.31 C170.77,254.31 173.83,255.48 174.86,256.62 C174.86,256.62 174.74,255.43 172.54,253.36 C170.33,251.29 162.28,243.52 159.82,240.12 C157.36,236.72 150.19,222.45 149.12,211.44 C148.99,210.06 148.87,208.73 148.78,207.45 L145.74,207.48 C145.83,208.58 146.04,210.98 146.23,212.3 C146.48,214.06 145.17,216.9 143.57,216.25 C141.97,215.59 140.86,214.87 141.78,210.76 C141.78,210.76 141.51,210.06 141.36,210.96 C141.2,211.87 139.88,215.49 137.68,213.49 C135.47,211.49 135.93,209.45 137.98,208.04 C138.48,207.7 137.99,207.41 137.57,207.75 C137.14,208.09 133.53,210.48 132.65,208.92 C132.33,208.36 132.31,207.87 132.46,207.46 L126.73,207.48 C127.4,207.87 128.28,208.13 129.44,208.16 C129.44,208.16 130.63,211.96 134.06,212.09 C134.06,212.09 135.59,216.95 139.94,216.25 C139.94,216.25 143.92,221.08 146.79,216.79 C146.79,216.79 149.82,235.75 160.63,245.94 C160.63,245.94 156.71,246.39 156.84,242.79 C156.41,243.13 154.79,244.15 153.2,242.59 C151.62,241.02 150.71,240.59 152.11,236.9 C151.75,237.45 150.52,239.74 148.91,239.79 C147.3,239.83 144.53,238.03 145.05,236.15 C145.57,234.27 147.29,232.06 147.66,231.16 C148.02,230.26 147.54,229.97 146.9,230.87 C146.25,231.77 143.94,236.14 141.91,235.76 C139.89,235.37 137.4,233.72 137.49,232.18 C137.58,230.64 138.23,229.81 139.52,228.29 C140.81,226.77 140.67,226.63 141.17,226.15 C141.67,225.67 141.12,225.1 140.55,225.65 C139.98,226.2 136.54,230.76 134.66,230.03 C132.78,229.3 131.47,228.5 131.49,227.25 C131.51,225.99 134.1,222.4 134.88,221.5 C135.67,220.6 134.76,220.17 133.77,221.2 C132.77,222.23 131.05,224.79 129.1,224.2 C127.15,223.61 126.75,222.34 126.98,221.08 C127.21,219.82 129.08,217.26 130,216.58 C130.92,215.9 130.37,215.4 129.66,215.87 C128.95,216.35 128.16,217.8 125.71,217.76 C123.26,217.72 122.39,215.53 122.69,214.14 C122.99,212.75 124,211.01 124.86,210.33 C125.71,209.65 125.37,209.36 124.45,209.97 C123.53,210.59 122.09,212.66 120.42,212.07 C118.75,211.48 117.31,209.56 117.9,208.1 C117.98,207.9 118.07,207.69 118.17,207.47 L118.18,207.47 C118.79,206.19 119.69,204.9 120.42,204.43 C121.27,203.88 121,203.46 120.01,204 C119.02,204.54 117.8,205.99 116.56,205.27 C115.31,204.55 113.45,203.04 114.18,201.38 C114.91,199.71 115.2,199.09 116.48,198.2 C117.75,197.31 117.41,196.74 116.29,197.15 C115.16,197.55 114.5,199.15 113.04,198.7 C111.58,198.25 109.44,196.61 110.87,194.67 C112.3,192.73 112.25,192.03 112.95,191.56 C113.66,191.08 113.38,190.8 112.53,191.2 C111.68,191.6 110.33,192.91 108.95,192.12 C107.56,191.33 105.62,190.1 106.07,188.5 C106.52,186.9 107.79,186.29 108.64,185.67 C109.49,185.06 109.07,184.84 108.3,185.25 C107.52,185.66 106.24,187.24 104.36,186.3 C102.49,185.36 101.31,184.57 101.9,182.97 C102.49,181.37 103.7,180.2 104.68,179.87 C105.67,179.54 105.32,179.25 104.48,179.45 C103.64,179.65 102.49,181.31 100.68,180.65 C98.87,179.99 96.37,178.96 96.76,176.8 C97.15,174.64 98.61,174.87 100.16,174.41 C101.71,173.95 101.09,173.52 99.96,173.85 C98.84,174.18 96.64,175.33 95.11,174.88 C93.58,174.44 91.45,171.95 92.16,171.33 C92.87,170.71 94.91,170.05 95.69,169.64 C96.47,169.23 96.26,168.81 95.42,169.21 C94.57,169.61 93.23,170.22 90.86,169.69 C88.49,169.16 87.66,168.59 87.89,167.33 C88.12,166.07 89.25,165.39 90.1,164.99 C90.95,164.58 90.82,163.88 89.76,164.49 C88.7,165.1 87,166.4 84.77,165.73 C83.29,165.29 82.36,164.82 82.04,164.13 L80.38,164.14 C80.6,165.56 81.68,167.45 85.94,167.22 C85.94,167.22 86.36,170.94 90.28,171.43 C90.28,171.43 89.52,175.06 94.88,176.76 C94.88,176.76 94.44,181.72 100.31,182.52 C100.31,182.52 98.63,186.83 104.69,187.99 C104.69,187.99 103.83,193.37 109,193.95 C109,193.95 106.44,199.85 112.87,200.67 C112.87,200.67 110.88,206.3 115.98,207.24 C115.98,207.24 115.97,207.31 115.97,207.44 L115.97,207.44 C115.92,208.51 115.91,213.59 120.41,214.11 C120.41,214.11 119.82,220.12 124.78,220.28 C124.78,220.28 123.96,226.91 129.7,226.88 C129.7,226.88 130.07,233.96 135.9,232.52 C135.9,232.52 136.27,239.38 143.16,237.69 C143.16,237.69 143.77,243.16 149.45,242.07 C149.45,242.07 150.5,245.94 155.97,245.62 C155.97,245.62 158,249.64 162.44,247.76 L167,251.48 C167,251.48 168.27,254.51 167.07,255.69 C165.86,256.86 163.35,256.11 163.15,255.62 C162.95,255.13 164.1,253.26 163.08,251.77 C163.08,251.77 162.33,254.42 161.13,255.31 C159.92,256.2 158.2,257.46 157.21,255.38 C156.87,254.67 159.09,251.84 159.19,250.16 C159.29,248.48 158.72,249.17 158.42,250.08 C158.12,250.99 157.01,254.39 155.74,255.42 C154.46,256.45 150.53,256.87 150.14,255.25 C149.75,253.63 152.44,251.4 152.99,248.51 C153.45,246.07 152.23,248.08 152.23,248.08 C152.23,248.08 149.88,254.55 147.27,255.34 C144.67,256.13 142.71,255.75 142.52,254.63 C142.33,253.51 146.07,247.69 146.31,246.29 C146.54,244.89 146.19,245.1 145.75,245.93 C145.32,246.76 141.49,253.35 139.52,253.87 C137.55,254.39 136.24,253.25 136.04,252.55 C135.84,251.85 139.81,245.13 140.61,243.53 C141.41,241.93 140.7,242.34 140.05,243.31 C139.4,244.28 135.64,251.21 133.61,251.25 C131.58,251.29 128.81,249.63 129.11,248.3 C129.41,246.97 136.18,240.52 136.06,239.04 C135.55,239.94 128.4,248.85 126.06,246.78 C123.71,244.71 123.5,244.85 123.66,243.59 C123.82,242.33 130.07,237.47 130.72,236.29 C131.37,235.11 130.94,235.38 130.3,236.07 C129.66,236.76 123.82,242.4 121.52,241.94 C119.22,241.48 117.85,239.78 118.08,238.52 C118.31,237.26 125.53,232.77 126.19,231.24 C126.85,229.71 126.28,230.26 125.77,231.02 C125.27,231.78 119.29,237.56 116.29,236.53 C113.3,235.5 113.39,234.45 113.61,233.4 C113.84,232.35 121.14,227.3 121.78,226.61 C122.42,225.92 122.07,225.78 121.22,226.46 C120.37,227.15 113.2,232.41 110.97,231.96 C108.74,231.5 107.11,228.25 107.62,227.21 C108.13,226.17 117.18,220.93 117.96,220.11 C118.75,219.28 118.19,219.21 117.48,219.75 C116.77,220.3 107.36,226.08 106.04,225.29 C104.72,224.5 101.34,221.78 102.28,220.12 C103.22,218.45 105.46,218.42 108.15,217.07 C110.83,215.72 112.32,214.55 113.1,213.8 C113.89,213.04 113.19,212.47 112.34,213.44 C111.48,214.41 105.04,218.28 102.04,217.95 C99.04,217.62 97.25,215.42 97.77,213.95 C98.28,212.49 107.16,209.21 108.44,208.33 C109.72,207.44 108.95,207.29 107.96,207.76 C106.97,208.23 97.93,212.97 95.37,211.18 C93.45,209.84 92.12,208.42 91.76,207.5 L89.39,207.5 C89.56,208.09 89.87,208.97 90.35,209.76 C91.17,211.1 94.43,212.77 94.43,212.77 C94.43,212.77 94.96,214.67 95.7,216.08 C96.44,217.49 99.63,219.44 99.63,219.44 C99.63,219.44 99.46,221.26 100.75,223.17 C102.05,225.08 103.99,226.31 104.82,226.74 C104.82,226.74 105.13,229.34 106.01,230.61 C107.79,233.16 110.09,233.34 110.09,233.34 C110.09,233.34 110.41,235.03 112,236.52 C113.58,238.02 115.53,238.54 115.53,238.54 C115.53,238.54 115.42,240.92 116.93,242.34 C118.45,243.77 120.96,244.44 120.96,244.44 C120.96,244.44 121.42,246.27 122.79,247.48 C124.17,248.69 126.4,249.08 126.4,249.08 C126.4,249.08 127.56,251.13 129.29,252.14 C131.02,253.15 132.84,253.11 132.84,253.11 C132.84,253.11 134.07,254.6 136.09,255.48 C138.11,256.35 140.35,256.18 140.35,256.18 C140.35,256.18 141.52,257.53 143.54,258.06 C145.56,258.59 148.59,257.52 148.59,257.52 C148.59,257.52 149.84,258.31 151.37,258.41 C152.91,258.51 155.51,257.78 155.51,257.78 C155.51,257.78 156.55,258.5 158.09,258.38 C159.63,258.27 161.82,257.47 161.82,257.47 C161.82,257.47 163.41,258.62 165.09,258.37 C166.78,258.12 168.95,257.6 168.95,257.6 C168.95,257.6 172.19,264.24 178.01,268.12 C178.01,268.12 178.66,271.07 180.24,272.78 C180.24,272.78 178.35,277.02 180.71,281.96 C180.71,281.96 175.78,291.68 181.95,295.21 C181.95,295.21 178.86,295.51 176.68,296.45 C174.49,297.39 170.67,300.05 171.33,302.24 C171.33,302.24 169.7,303.47 169.81,305.29 C169.92,307.11 170.33,307.68 171.44,308.05 C171.44,308.05 171.39,307 171.61,306.44 C171.83,305.89 172.38,305.87 172.66,305.5 C172.95,305.13 172.91,304.66 173.7,304.63 C174.49,304.6 175.33,304.75 175.9,304.58 C176.46,304.4 178.25,303.64 179.01,303.05 C179.01,303.05 179.65,303.99 180.2,304.52 C180.75,305.04 181.25,305.61 181.33,306.45 C181.41,307.29 181.47,309.58 181.73,310.29 C181.73,310.29 182.35,309.65 183.07,308.4 C183.79,307.15 184.51,306.09 184.51,306.09 C184.51,306.09 185.59,305.97 187.42,304.88 C187.42,304.88 187.69,305.31 188.34,305.55 C188.99,305.8 189.23,305.57 189.64,306.23 C190.05,306.89 190.27,307.31 190.35,308.11 C190.43,308.9 190.79,309.47 190.4,310.3 C190.01,311.13 189.58,311.55 189.58,311.55 C189.58,311.55 190.56,311.38 191.09,310.78 C191.61,310.18 192.27,309.77 192.72,308.43 C193.16,307.08 194.2,306.68 194.52,307.2 C194.84,307.72 195.2,308.33 196.4,309.01 C196.4,309.01 198.42,313.43 201.15,312.54 C201.15,312.54 199.58,311.16 199.6,310.13 C199.6,310.13 200.83,309.45 201.3,308.99 C201.3,308.99 202.32,309.62 203.58,309.83 C204.84,310.04 205.82,309.91 205.82,309.91 C205.82,309.91 206,312.85 206.46,313.75 C206.46,313.75 208.17,312.24 209.23,310.06 C209.23,310.06 211.39,309.59 212.19,308.67 C212.19,308.67 212.96,309.66 214.26,310.2 C215.56,310.73 216.17,310.51 216.17,310.51 C216.17,310.51 217,311.04 216.7,312.02 C216.4,312.99 215.64,314.19 215.64,314.19 C215.64,314.19 217.32,314.03 217.89,313.39 C218.46,312.75 219.52,310.94 219.73,309.64 C219.73,309.64 222.55,310.99 224.33,310.79 C226.11,310.59 227.2,309.58 227.53,309.12 C227.53,309.12 230.55,309.97 232.89,309.35 C235.24,308.74 236.65,307.83 238,305.75 C238,305.75 246.91,306.05 248.06,298.74 C248.06,298.74 258.38,295.79 258.15,290.1 C258.15,290.1 261.62,289.46 262.47,288.82 C262.47,288.82 261.38,287.07 261.03,285.99 C260.67,284.91 257.52,280.84 252.95,278.24 C248.37,275.64 237.89,271.77 234.2,269.28 C230.51,266.79 227.22,265.75 224.38,262.16 C221.55,258.56 219.48,253.95 219.22,252.83 C219.22,252.83 221.63,253.67 222.9,253.13 C222.9,253.13 227.6,253.96 229.3,252.87 C229.3,252.87 236.03,254.67 238.74,252.05 C238.74,252.05 244.09,252.8 245.25,250.95 C245.25,250.95 252.51,251.87 254.08,247.37 C254.08,247.37 259.07,248.02 261.62,243.35 C261.62,243.35 267.47,242.75 268.47,238.8 C268.47,238.8 273.56,238.52 275.03,232.15 C275.03,232.15 280.38,230.38 281.27,224.6 C281.27,224.6 285.76,221.55 286.34,217.92 C286.34,217.92 290.73,214.97 291.4,211.29 C291.4,211.29 294.14,210.82 297.56,207.48 L294.87,207.48 L297.56,207.48 C298.6,206.45 299.71,205.16 300.82,203.53 C300.82,203.53 306.69,201.34 308.74,196.53 C308.74,196.53 315.96,194.46 316.18,189.94 C316.18,189.94 327.49,186.5 327.41,182.9 C327.41,182.9 341.56,178.47 341.92,175.69 C342.13,173.97 339.85,173.79 339.85,173.79 C339.85,173.79 346.35,173.06 348.43,171.6 C348.43,171.6 360.25,170.78 360.29,168.4 C360.33,166.02 355.12,165.46 355.12,165.46 C355.12,165.46 357.06,165.01 359.01,164.17 L359.04,164.17 C359.92,163.79 360.8,163.34 361.51,162.82 C361.51,162.82 364.94,161.67 366.11,161.41 C367.28,161.15 368.3,161.77 371.53,161.22 C373.52,160.88 375.77,160.02 377.21,158.92 C377.5,160.66 377.77,162.42 378.01,164.16 L379.11,164.17 L378.01,164.18 C379.35,173.76 379.95,183.56 379.78,193.53 C379.7,198.23 379.44,202.89 379.02,207.49 L379.38,207.49 L379.02,207.49 C374.2,260.22 347.62,306.49 308.45,337.44 L308.42,337.44 C295.38,347.73 280.95,356.32 265.46,362.89 L265.37,365.94 C282.61,358.77 298.58,349.13 312.83,337.47 L310.88,337.46 L312.83,337.45 C351.17,306.05 377.07,259.94 381.8,207.52 L381.8,207.52 C382.22,202.92 382.47,198.27 382.55,193.57 C382.72,183.6 382.13,173.79 380.88,164.16 L380.88,164.16 C380.18,158.78 379.28,153.47 378.19,148.22 C383.64,146.39 384.97,145.43 384.71,144.03 Z M11.14,142.1 C14.25,142.84 19.23,144.51 23.55,146.63 C23.55,146.63 15.92,146.71 11.37,146.84 L9.93,146.96 L11.14,142.1 Z M353.3,141.61 C353.3,141.61 359.43,137.99 363.57,135.96 C365.49,135.02 368.38,134.04 370.9,133.06 C371.78,135.81 372.6,138.59 373.36,141.4 C366.98,141.25 357.2,141.3 353.3,141.61 Z M192.08,304.76 C191.38,304.63 190.09,303.77 189.85,302.99 C189.61,302.21 189.46,301.37 188.54,301.64 C188.54,301.64 188.09,300.3 186.94,300.75 C186.94,300.75 186.43,299.43 185.62,300.14 C185.61,300.49 185.95,301.06 185.55,301.7 C185.14,302.35 185.25,302.54 185.06,302.97 C184.87,303.41 184.71,304.3 183.06,303.96 C181.41,303.63 180.72,302.92 180.88,301.94 C181.04,300.96 181.77,300.25 181.72,299.04 C181.49,299.03 180.83,299.47 180.11,299.15 C179.81,299.21 179.65,300.31 179.08,300.74 C179.08,300.74 178.35,299.75 177.98,299.9 C177.6,300.06 177.28,301.36 176.12,300.94 C175.56,301.05 174.94,302.76 174.08,302.84 C173.22,302.92 172.54,301.88 172.61,301.25 C172.69,300.62 175.34,297.12 184.12,295.8 C184.12,295.8 184.21,293.51 185.4,293.51 C186.22,293.51 187.64,294.6 187.63,295.56 C187.61,296.52 187.11,297.09 187.83,297.31 C188.55,297.53 189.29,298.03 190.83,299.42 C192.37,300.8 193.53,302.2 193.42,303.32 C193.3,304.46 192.78,304.89 192.08,304.76 Z M194.05,299.11 C194.05,299.11 194,296.91 193.61,294.95 C193.61,294.95 194.68,294.97 194.86,295.3 C194.86,295.3 196,291.82 194.89,285.83 C194.89,285.83 195.72,283.79 194.79,280.88 C194.79,280.88 196.31,282.07 196.67,282.78 C196.67,282.78 197.51,279.95 196.42,275.54 C196.42,275.54 200.39,278.04 201.42,280.3 C202.45,282.56 202.24,284.47 201.79,285.72 C201.79,285.72 203.17,287 203.15,288.08 C203.13,289.15 202.72,291.01 202.23,292.68 C201.74,294.35 201.75,296.41 203.73,297.79 C203.73,297.79 199.36,299.49 196.52,301.91 C196.52,301.9 195.2,300.15 194.05,299.11 Z M218.02,308.23 C217.45,308.64 216.72,309.16 216.25,307.9 C215.78,306.63 215.53,306.37 214.91,306.75 L214.17,305.29 L213.59,306.44 C213.59,306.44 213.31,305.08 212.92,304.49 C212.53,303.9 211.97,304.31 211.97,304.31 C211.97,304.31 211.29,302.95 210.46,302.3 C210.46,302.3 210.76,305.27 210.55,306.62 C210.34,307.97 209.59,307.98 209.03,307.95 C208.47,307.92 208.23,308.38 207.79,308.26 C207.35,308.14 206.35,307.77 206.11,306.83 C205.87,305.89 205.79,305.24 206.05,304.84 C206.31,304.45 206.42,302.38 205.65,302.36 C204.88,302.35 205.08,303.12 204.69,303.56 C204.69,303.56 204.15,302.34 203.68,302.47 C203.21,302.6 203.33,303.8 202.94,304.42 C202.94,304.42 202.26,303.26 201.87,303.14 C201.48,303.02 201.6,303.88 201.45,304.37 C201.3,304.86 201.09,304.99 200.43,304.09 C200.08,304.18 200.24,305.61 199.93,305.95 C199.62,306.3 198.65,307.19 197.93,307.15 C197.21,307.11 195.04,305.63 196.58,304.21 C198.12,302.79 202.9,299 206.13,298.71 C206.13,298.71 207.68,295.63 207.41,294.69 C207.41,294.69 210.16,295.07 210.13,299.1 C210.13,299.1 213.49,300.23 215.36,301.83 C217.22,303.43 218.52,305.36 218.76,306.32 C219.02,307.29 218.59,307.82 218.02,308.23 Z M223.58,307.7 C222.04,307.53 221.16,307.05 221.16,307.05 C221.16,307.05 220.64,304.8 219.13,303.33 C217.61,301.86 215.41,299.76 212.4,298.45 C212.4,298.45 213.83,296.56 214.27,295.54 C214.27,295.54 216.58,296.79 217.36,297.65 C217.36,297.65 218.45,296.83 218.08,293.93 C218.08,293.93 219.59,295.45 220.49,297.66 C221.38,299.87 221.59,301.46 222.77,303.58 C223.95,305.7 225.88,307.42 225.88,307.42 C225.88,307.42 225.12,307.86 223.58,307.7 Z M231.08,306.38 C228.56,306.05 226.52,305.32 224.03,301.31 C221.53,297.3 219.36,293.66 218.34,293.09 C218.34,293.09 218.64,291.84 218.47,290.94 C218.47,290.94 220.37,291.82 221.81,291.79 C221.81,291.79 220,288.82 219.51,287.08 C219.03,285.35 217.71,283.32 217.71,283.32 C217.71,283.32 220.08,283.78 223.67,289.63 C227.26,295.48 227.97,297.08 229.15,299.01 C230.33,300.94 232.38,303.87 235.26,304.9 C235.26,304.91 233.59,306.7 231.08,306.38 Z M239.59,302.42 C235.49,302.35 232.77,300.48 230.45,296.71 C228.14,292.94 226.23,290.1 222.75,285.89 C219.28,281.68 216.8,279.11 215.53,277.04 C214.26,274.97 214.01,273.47 214.01,273.47 C214.01,273.47 216.56,279.63 224.02,279.85 L234.09,291.23 C238.16,295.83 245.54,298.1 245.910034,298.11 C245.92,298.1 243.7,302.49 239.59,302.42 Z M226.33,270.5 C227.54,270.62 229.72,271.17 230.1,270.99 C230.48,270.81 229.61,269.3 229.61,269.3 C229.61,269.3 239.87,275.27 246.86,278.75 C253.84,282.23 258.34,286.7 259.73,287.28 C259.73,287.28 257.78,289.72 251.45,288.16 C245.13,286.6 242.1,283.8 239.49,281.18 C236.87,278.57 229.36,272.88 228.11,272.26 C226.86,271.63 227.36,272.34 227.73,272.72 C228.1,273.1 231.86,277.23 236.35,281.6 C240.85,285.97 242.72,288.29 246.53,289.62 C250.33,290.95 254.39,290.83 254.39,290.83 C254.39,290.83 252.08,295.32 246.95,295.09 C241.81,294.86 237.8,292.08 233.63,288 L225.18,279.78 C225.18,279.78 227.05,279.44 227.95,279.08 C228.18,279.08 230.18,279.26 230.34,278.75 C230.48,278.24 229.36,278.22 228.77,277.28 C228.18,276.34 225.88,271.91 225.24,270.82 C225.25,270.81 225.12,270.38 226.33,270.5 Z M362.66,153.4 C362.66,153.4 369.74,150.95 375.25,149.11 C375.71,151.13 376.13,153.16 376.51,155.2 C372.59,153.99 364.51,153.32 362.66,153.4 Z" id="Shape"></path>
                <polygon id="Path" points="153.82 107.77 159.04 104.12 164.13 107.95 162.27 101.85 167.49 98.2 161.12 98.09 159.25 91.99 157.18 98.02 150.8 97.91 155.89 101.74"></polygon>
                <path d="M89.4,144.22 C89.4,144.22 89.49,151.01 96.6,152.82 C96.6,152.82 99.51,158.61 103.83,159.31 C103.83,159.31 106.25,162.86 109.33,164.1 L111.2,164.09 C111.18,163.5 111.22,162.86 111.34,162.17 C111.34,162.17 103.82,159.94 105.42,156.26 C105.42,156.26 98.74,157.82 97.96,150.53 C97.96,150.53 89.36,149.89 91.59,142.58 C91.59,142.58 85.24,141.56 85.51,134.28 C85.51,134.28 81.03,138.4 89.4,144.22 Z" id="Path"></path>
                <path d="M81.96,164.1 C81.8,163.75 81.79,163.34 81.94,162.85 C82.39,161.38 83.51,161.13 84.29,160.72 C85.07,160.31 84.58,160.16 83.95,160.23 C83.32,160.29 80.99,161.65 79.67,160.85 C78.35,160.06 76.96,159.47 77.61,158.3 C78.26,157.12 79.67,156.58 80.73,156.04 C81.79,155.5 81.79,155.29 80.53,155.62 C79.26,155.95 77.07,157.1 75.26,156.65 C73.45,156.2 70.61,154.4 72.25,152.61 C73.89,150.82 75.01,151.05 75.99,150.86 C76.97,150.67 77.12,150.25 75.93,150.3 C74.74,150.35 72.7,151.09 71.04,150.08 C69.38,149.07 68.65,146.82 69.93,145.65 C71.21,144.48 72.19,144.64 73.45,144.66 C74.71,144.68 74.37,144.05 73.25,144.02 C72.13,144 70.51,144.53 68.92,143.32 C67.33,142.1 66.4,139.49 68.03,138.05 C69.67,136.61 70.64,137.12 71.9,137.07 C73.16,137.02 72.96,136.46 71.91,136.44 C70.86,136.42 69.32,136.6 69.13,135.13 C68.95,133.66 68.83,132.11 70.67,131.1 C72.51,130.08 70.83,130.19 69.84,130.6 C68.85,131 65.96,132.42 67.22,136.01 C67.22,136.01 62.46,140.27 67.98,144.64 C67.98,144.64 65.32,148.79 70.8,151.83 C70.8,151.83 67.15,156.45 75.44,158.49 C75.44,158.49 75.8,162.13 80.34,162.63 C80.34,162.63 80.18,163.3 80.3,164.12 L81.96,164.1 Z" id="Path"></path>
                <polygon id="Path" points="228.49 108.8 231.91 106.41 235.24 108.92 234.02 104.93 237.44 102.53 233.27 102.46 232.05 98.47 230.69 102.42 226.52 102.34 229.85 104.86"></polygon>
                <polygon id="Path" points="197.64 126.4 201.06 124.01 204.39 126.52 203.18 122.53 206.59 120.14 202.42 120.06 201.2 116.07 199.84 120.02 195.67 119.95 199 122.46"></polygon>
                <path d="M278.64,159.42 C276.38,160.78 272.68,159.87 271.85,159.58 C271.01,159.28 270.59,159.7 271.56,160.2 C272.53,160.71 272.81,160.78 274.48,161.09 C276.16,161.4 277.56,161.07 277.69,161.99 C277.75,162.44 276.82,163.28 275.66,164.08 L275.64,164.08 C274.49,164.87 273.11,165.62 272.3,165.88 C270.68,166.41 267.62,165.45 266.5,165.29 C265.38,165.13 265.3,165.41 266.21,165.84 C267.11,166.28 269.06,166.8 269.61,167.51 C270.16,168.22 269.15,169.74 267.17,170.69 C265.2,171.64 263.32,171.11 262.47,171.38 C263.24,171.6 263.17,171.67 264.35,171.97 C265.54,172.27 266.32,171.58 266.38,172.29 C266.43,172.99 264.93,174.86 264.23,175.19 C263.52,175.53 261.34,175.77 260.51,175.41 C259.68,175.05 259.25,175.74 260.29,175.97 C261.34,176.2 261.62,176.34 263.09,176.23 C264.56,176.12 264.41,176.46 263.46,178.62 C262.52,180.77 258.1,180.91 257.19,180.96 C256.28,181.02 256,181.22 256.97,181.45 C257.95,181.68 258.92,182.25 259.97,182.27 C261.02,182.29 260.88,182.29 261.07,183.48 C261.26,184.68 258.91,186.87 257.43,187.34 C255.95,187.8 253.43,187.9 252.45,188.09 C253.21,188.45 254.47,188.47 256.29,188.79 C258.1,189.1 258.39,188.55 258.66,189.11 C258.93,189.67 258.14,190.71 257.07,191.95 C256,193.19 253.75,193.71 252.48,194.18 C253.04,194.47 253.18,194.19 254.02,194.28 C254.86,194.37 256.2,193.97 256.82,194.54 C257.44,195.11 256.36,196.49 255,198.36 C253.64,200.22 250.22,199.47 248.53,199.86 C249.09,200.29 249.44,200.02 250.42,200.38 C251.39,200.75 254.05,200.79 254.82,200.53 C255.6,200.26 255.66,200.75 255.35,202.29 C255.04,203.83 253.63,204.78 252.01,205.45 C250.38,206.12 247.1,205.57 245.92,205.34 C244.73,205.11 244.65,205.67 245.63,205.83 C246.61,205.99 248.27,206.64 250.03,206.74 C251.77,206.84 252.41,206.15 252.89,206.79 C253.03,206.97 253.08,207.17 253.07,207.41 C253.03,208 252.54,208.77 251.72,209.71 C250.58,211.02 249.32,211 247.85,211.11 C246.37,211.23 244.43,210.28 243.25,209.84 C242.07,209.4 242.34,209.75 243.03,210.26 C243.72,210.76 246.09,211.5 247.62,211.95 C249.16,212.4 249.8,211.71 249.93,212.2 C250.06,212.69 249.98,213.32 248.9,214.7 C247.83,216.08 247.2,216.21 245.31,215.97 C243.43,215.73 241.27,214.85 240.44,214.34 C239.61,213.84 239.18,214.46 240.15,215.04 C241.12,215.62 245.29,217.23 246.69,217.39 C248.08,217.55 247.3,218.1 246.65,219.63 C245.99,221.16 243.68,221.19 242.01,220.88 C240.33,220.57 238.05,219.2 237.28,218.77 C236.52,218.34 235.75,218.67 236.92,219.33 C238.1,219.98 241.84,222.49 243.45,222.31 C245.06,222.13 244.99,222.48 244.26,224.01 C243.54,225.54 241.42,226.34 239.25,226.37 C237.08,226.4 233.61,224.45 232.92,224.09 C232.23,223.73 231.87,223.93 232.63,224.65 C233.39,225.36 236.45,226.54 238.32,227.34 C240.2,228.14 241.55,226.9 241.82,227.47 C242.09,228.03 242.23,228.31 240.24,229.96 C238.25,231.61 237.27,231.38 234.98,230.5 C232.68,229.62 230.19,228.18 229.15,227.6 C228.11,227.02 228.17,227.58 229.07,228.3 C229.97,229.02 232.54,230.46 234.13,231.68 C235.72,232.9 236.92,232.29 237.33,232.71 C237.74,233.14 237.31,233.97 236.04,234.72 C234.76,235.47 233.5,235.59 230.92,235.19 C228.33,234.8 224.25,232.2 223.2,232.26 C223.82,233.04 227.76,235.56 229.77,236.36 C231.79,237.17 231.87,236.47 231.87,236.96 C231.85,237.45 231.5,237.87 229.94,238.96 C228.38,240.05 227.49,239.19 224.5,237.88 C221.51,236.57 218.81,234.7 217.78,233.98 C216.74,233.26 216.67,233.47 217.74,234.79 C218.15,235.22 218.69,235.54 221.57,237.48 C225.31,240 226.99,239.95 226.76,240.86 C226.53,241.77 225.61,242.24 223.02,242.34 C220.43,242.44 217.88,239.94 217.05,239.43 C216.22,238.93 215.52,238.78 216.83,239.92 C218.14,241.06 220.91,242.93 220.34,243.41 C219.77,243.89 217.67,243.93 217.12,243.64 L217.04,244.13 C220.99,247.2 222.86,243.53 222.86,243.53 C228.17,243.69 229.14,240.56 229.14,240.56 C232.29,240.47 233.54,237.28 233.54,237.28 C239,237.1 239.36,232.62 239.36,232.62 C243.87,231.02 244.02,226.68 244.02,226.68 C246.62,225.74 246.83,221.62 246.83,221.62 C249.1,220.12 249.16,216.97 249.16,216.97 C251.63,215.68 251.99,211.21 251.99,211.21 C253.85,210.17 254.34,208.66 254.42,207.48 L254.42,207.48 C254.48,206.55 254.25,205.86 254.25,205.86 C257.93,203.54 256.88,199.47 256.88,199.47 C260.09,196.1 258.6,193.2 258.6,193.2 C260.87,191.49 260.37,188.26 260.37,188.26 C264.05,186.08 262.86,181.58 262.86,181.58 C266.47,179.75 266.12,175.76 266.12,175.76 C268.44,174.96 268.42,171.81 268.42,171.81 C271.31,170.95 272.63,167.19 272.63,167.19 C275.25,166.9 277.11,165.55 278.38,164.13 L277.13,164.12 L278.38,164.11 C280.01,162.28 280.67,160.32 280.67,160.32 C284.39,159.33 284.94,156.26 284.94,156.26 C289.58,154.87 288.97,149.82 288.97,149.82 C292.67,146.24 289.26,141.29 289.26,141.29 C289.56,140.03 288.81,138.69 287.86,137.27 C286.9,135.86 283.33,136.14 281.78,136.46 C280.24,136.79 280.37,137.14 281.35,137.22 C282.33,137.3 282.6,137.52 284.63,137.7 C286.66,137.88 286.17,137.87 286.78,138.93 C287.39,139.99 287.3,141.04 286.45,141.8 C285.6,142.55 283.78,142.73 282.87,142.65 C281.96,142.56 281.6,143.05 282.5,143.41 C283.41,143.78 283.83,143.64 285.58,143.39 C287.34,143.14 288.03,143.64 288.7,145.33 C289.37,147.02 287.8,149.02 286.31,149.84 C284.83,150.66 280.07,150.08 279.31,149.93 C278.54,149.78 277.91,150.12 279.09,150.49 C280.27,150.86 282.44,151.25 284.11,151.35 C285.79,151.45 286.36,151.04 286.84,151.68 C287.32,152.32 284.77,154.09 283.42,154.63 C282.09,155.17 278.31,154.89 277.34,154.59 C276.36,154.29 276.08,154.64 277.04,155.29 C278.01,155.94 277.6,155.65 279.2,155.89 C280.81,156.13 281.59,155.58 282.35,156.23 C283.1,156.84 280.91,158.06 278.64,159.42 Z" id="Path"></path>
                <polygon id="Path" points="180.99 88.1 184.41 85.71 187.74 88.22 186.53 84.23 189.94 81.83 185.77 81.76 184.55 77.77 183.19 81.71 179.02 81.64 182.35 84.15"></polygon>
                <path d="M238.94,159.85 C238.94,159.85 237.77,161.54 235.81,164.1 L236.98,164.09 C238.31,161.5 238.94,159.85 238.94,159.85 Z" id="Path"></path>
            </g>
            <polygon id="Path" fill="#C70B28" points="1033.12 286.31 1044.91 286.31 1044.91 492.69 1033.12 492.69"></polygon>
            <path d="M30.21,442.66 L42.76,442.66 L28.4,397.51 L15.01,397.51 L0,442.66 L11.64,442.66 L14.55,433.08 L27.81,433.08 L30.21,442.66 L30.21,442.66 Z M25.55,424.42 L16.62,424.42 L21.47,406.68 L21.6,406.68 L25.55,424.42 L25.55,424.42 Z" id="Shape" fill="#A4ACB1"></path>
            <polygon id="Path" fill="#A4ACB1" points="69.39 442.66 83.56 442.66 69.65 418.66 82.59 397.51 69.13 397.51 59.3 415.81 59.17 415.81 59.17 397.51 47.01 397.51 47.01 442.66 59.17 442.66 59.17 422.28 59.3 422.28"></polygon>
            <path d="M114.03,442.66 L126.58,442.66 L112.22,397.51 L98.83,397.51 L83.82,442.66 L95.46,442.66 L98.37,433.08 L111.63,433.08 L114.03,442.66 L114.03,442.66 Z M109.37,424.42 L100.45,424.42 L105.3,406.68 L105.43,406.68 L109.37,424.42 L109.37,424.42 Z" id="Shape" fill="#A4ACB1"></path>
            <path d="M130.84,442.660359 L146.36,442.660359 C153.56,442.69 159.11,440.84 163.01,437.11 C166.91,433.39 168.89,427.62 168.94,419.82 C168.91,413 167.11,407.6 163.56,403.61 C160.01,399.62 154.9,397.59 148.24,397.5 L130.84,397.5 L130.84,442.660359 L130.84,442.660359 Z M142.99,406.43 L143.96,406.43 C146.19,406.39 148.22,406.73 150.05,407.44 C151.88,408.16 153.35,409.53 154.44,411.53 C155.54,413.54 156.1,416.45 156.13,420.27 C156.13,424.66 155.25,428.04 153.51,430.41 C151.76,432.77 149.14,433.97 145.64,433.99 L142.99,433.99 L142.99,406.43 L142.99,406.43 Z" id="Shape" fill="#A4ACB1"></path>
            <polygon id="Path" fill="#A4ACB1" points="175.19 442.66 203.72 442.66 203.72 433.74 187.09 433.74 187.09 424.03 202.1 424.03 202.1 415.11 187.09 415.11 187.09 406.43 202.88 406.43 202.88 397.51 175.19 397.51"></polygon>
            <polygon id="Path" fill="#A4ACB1" points="229.77 442.66 237.34 442.66 247.05 408.37 247.18 408.37 247.18 442.66 258.04 442.66 258.04 397.51 240.58 397.51 233.98 425.84 233.85 425.84 227.83 397.51 209.91 397.51 209.91 442.66 220.51 442.66 220.51 408.37 220.64 408.37"></polygon>
            <polygon id="Path" fill="#A4ACB1" points="266.2 442.66 278.36 442.66 278.36 397.51 266.2 397.51"></polygon>
            <polygon id="Path" fill="#A4ACB1" points="286.54 442.66 315.07 442.66 315.07 433.74 298.44 433.74 298.44 424.03 313.45 424.03 313.45 415.11 298.44 415.11 298.44 406.43 314.23 406.43 314.23 397.51 286.54 397.51"></polygon>
            <path d="M338.09,442.660359 L353.61,442.660359 C360.81,442.69 366.36,440.84 370.27,437.11 C374.17,433.39 376.15,427.62 376.2,419.82 C376.17,413 374.37,407.6 370.82,403.61 C367.27,399.62 362.16,397.59 355.49,397.5 L338.09,397.5 L338.09,442.660359 L338.09,442.660359 Z M350.24,406.43 L351.21,406.43 C353.44,406.39 355.47,406.73 357.3,407.44 C359.13,408.16 360.59,409.53 361.69,411.53 C362.79,413.54 363.35,416.45 363.38,420.27 C363.38,424.66 362.51,428.04 360.76,430.41 C359.02,432.77 356.39,433.97 352.89,433.99 L350.24,433.99 L350.24,406.43 L350.24,406.43 Z" id="Shape" fill="#A4ACB1"></path>
            <polygon id="Path" fill="#A4ACB1" points="382.45 442.66 410.97 442.66 410.97 433.74 394.34 433.74 394.34 424.03 409.36 424.03 409.36 415.11 394.34 415.11 394.34 406.43 410.13 406.43 410.13 397.51 382.45 397.51"></polygon>
            <path d="M428.81,416.33 L428.81,406.17 L432.18,406.17 C433.95,406.2 435.26,406.69 436.1,407.66 C436.94,408.63 437.36,409.9 437.36,411.48 C437.31,412.96 436.81,414.13 435.84,415 C434.87,415.87 433.72,416.31 432.38,416.33 L428.81,416.33 L428.81,416.33 Z M438.45,442.66 L451,442.66 L446.92,428.56 C446.04,425.52 445.12,423.45 444.17,422.35 C443.22,421.25 442.11,420.54 440.84,420.22 L440.84,420.03 C442.19,419.72 443.52,419.18 444.84,418.4 C446.16,417.62 447.26,416.52 448.13,415.11 C449.01,413.7 449.47,411.89 449.5,409.68 C449.48,405.52 448.23,402.46 445.77,400.47 C443.31,398.49 439.79,397.51 435.2,397.519924 L417.15,397.519924 L417.15,442.67 L429.31,442.67 L429.31,425 L429.96,425 C430.95,424.93 431.9,425.2 432.81,425.8 C433.72,426.4 434.48,427.75 435.08,429.85 L438.45,442.66 L438.45,442.66 Z" id="Shape" fill="#A4ACB1"></path>
            <polygon id="Path" fill="#A4ACB1" points="500.62 442.66 514.99 442.66 523.27 397.51 512.92 397.51 507.94 429.2 507.81 429.2 502.89 397.51 488.79 397.51 484.06 429.2 483.93 429.2 479.15 397.51 467.76 397.51 476.69 442.66 490.86 442.66 495.71 407.85 495.84 407.85"></polygon>
            <polygon id="Path" fill="#A4ACB1" points="527.74 442.66 539.89 442.66 539.89 397.51 527.74 397.51"></polygon>
            <path d="M547.5,441.69 C548.65,442.02 550.26,442.38 552.33,442.78 C554.4,443.18 556.8,443.4 559.53,443.44 C564.88,443.44 569.14,442.18 572.32,439.68 C575.49,437.18 577.12,433.45 577.2,428.5 C577.13,425.2 576.37,422.68 574.91,420.95 C573.45,419.22 571.67,417.92 569.57,417.04 L564.14,414.58 C562.17,413.72 560.8,412.92 560.04,412.19 C559.28,411.46 558.92,410.53 558.96,409.41 C558.98,408.01 559.49,406.96 560.51,406.23 C561.53,405.51 562.96,405.14 564.79,405.14 C566.57,405.16 568.29,405.4 569.95,405.86 C571.61,406.32 572.99,406.83 574.1,407.41 L574.62,398.55 C572.74,397.83 570.82,397.34 568.83,397.09 C566.84,396.84 564.98,396.72 563.24,396.74 C558.37,396.76 554.43,397.93 551.43,400.23 C548.43,402.53 546.89,405.83 546.81,410.12 C546.75,413.3 547.44,415.96 548.87,418.1 C550.3,420.24 552.85,422.03 556.51,423.46 L559.16,424.5 C560.92,425.12 562.27,425.79 563.22,426.48 C564.17,427.18 564.65,428.24 564.66,429.67 C564.69,431.12 564.23,432.28 563.27,433.16 C562.32,434.04 560.71,434.5 558.44,434.52 C556.21,434.46 554.16,434.11 552.27,433.48 C550.38,432.85 549.04,432.29 548.23,431.8 L547.5,441.69 L547.5,441.69 Z" id="Path" fill="#A4ACB1"></path>
            <path d="M583.44,441.69 C584.59,442.02 586.2,442.38 588.27,442.78 C590.33,443.18 592.74,443.4 595.47,443.44 C600.82,443.44 605.08,442.18 608.26,439.68 C611.43,437.18 613.06,433.45 613.14,428.5 C613.08,425.2 612.31,422.68 610.85,420.95 C609.39,419.22 607.61,417.92 605.51,417.04 L600.08,414.58 C598.11,413.72 596.74,412.92 595.98,412.19 C595.22,411.46 594.86,410.53 594.89,409.41 C594.91,408.01 595.42,406.96 596.45,406.23 C597.47,405.51 598.9,405.14 600.73,405.14 C602.51,405.16 604.23,405.4 605.89,405.86 C607.55,406.32 608.93,406.83 610.04,407.41 L610.56,398.55 C608.69,397.83 606.76,397.34 604.77,397.09 C602.79,396.84 600.92,396.72 599.17,396.74 C594.3,396.76 590.36,397.93 587.36,400.23 C584.36,402.53 582.82,405.83 582.74,410.12 C582.68,413.3 583.36,415.96 584.8,418.1 C586.23,420.24 588.78,422.03 592.44,423.46 L595.09,424.5 C596.85,425.12 598.21,425.79 599.15,426.48 C600.1,427.18 600.58,428.24 600.59,429.67 C600.62,431.12 600.16,432.28 599.21,433.16 C598.26,434.04 596.64,434.5 594.37,434.52 C592.14,434.46 590.09,434.11 588.2,433.48 C586.31,432.85 584.96,432.29 584.16,431.8 L583.44,441.69 L583.44,441.69 Z" id="Path" fill="#A4ACB1"></path>
            <polygon id="Path" fill="#A4ACB1" points="619.97 442.66 648.49 442.66 648.49 433.74 631.87 433.74 631.87 424.03 646.88 424.03 646.88 415.11 631.87 415.11 631.87 406.43 647.65 406.43 647.65 397.51 619.97 397.51"></polygon>
            <polygon id="Path" fill="#A4ACB1" points="676.88 442.66 691.11 442.66 691.11 397.51 680.51 397.51 680.51 428.62 680.38 428.62 668.53 397.51 654.43 397.51 654.43 442.66 665.03 442.66 665.03 411.35 665.29 411.35"></polygon>
            <path d="M698.46,441.69 C699.61,442.02 701.22,442.38 703.29,442.78 C705.36,443.18 707.75,443.4 710.49,443.44 C715.84,443.44 720.11,442.18 723.28,439.68 C726.45,437.18 728.08,433.45 728.15,428.5 C728.09,425.2 727.33,422.68 725.87,420.95 C724.41,419.22 722.63,417.92 720.52,417.04 L715.09,414.58 C713.12,413.72 711.75,412.92 710.99,412.19 C710.23,411.46 709.87,410.53 709.9,409.41 C709.92,408.01 710.44,406.96 711.46,406.23 C712.48,405.51 713.91,405.14 715.74,405.14 C717.52,405.16 719.24,405.4 720.91,405.86 C722.57,406.32 723.95,406.83 725.06,407.41 L725.58,398.55 C723.71,397.83 721.78,397.34 719.79,397.09 C717.8,396.84 715.94,396.72 714.19,396.74 C709.31,396.76 705.38,397.93 702.38,400.23 C699.38,402.53 697.84,405.83 697.76,410.12 C697.7,413.3 698.39,415.96 699.82,418.1 C701.26,420.24 703.8,422.03 707.46,423.46 L710.11,424.5 C711.87,425.12 713.22,425.79 714.18,426.48 C715.13,427.18 715.61,428.24 715.62,429.67 C715.65,431.12 715.19,432.28 714.23,433.16 C713.28,434.04 711.67,434.5 709.4,434.52 C707.17,434.46 705.11,434.11 703.23,433.48 C701.34,432.85 700,432.29 699.19,431.8 L698.46,441.69 L698.46,441.69 Z" id="Path" fill="#A4ACB1"></path>
            <path d="M766.75,431.21 C766.15,431.66 765.1,432.17 763.6,432.77 C762.1,433.36 760.26,433.68 758.08,433.74 C754.25,433.65 751.31,432.34 749.27,429.79 C747.23,427.24 746.2,423.99 746.18,420.02 C746.17,415.59 747.09,412.18 748.96,409.8 C750.82,407.41 753.69,406.2 757.56,406.18 C759.51,406.23 761.28,406.56 762.86,407.16 C764.44,407.76 765.61,408.29 766.36,408.77 L767.01,398.81 C766.44,398.53 765.22,398.12 763.34,397.61 C761.46,397.09 759.04,396.8 756.08,396.74 C751.14,396.78 747,397.78 743.68,399.75 C740.35,401.72 737.85,404.42 736.16,407.87 C734.48,411.32 733.64,415.28 733.63,419.77 C733.66,425.05 734.64,429.45 736.55,432.95 C738.46,436.46 741.1,439.08 744.47,440.83 C747.84,442.57 751.73,443.44 756.14,443.44 C757.87,443.44 759.67,443.29 761.56,443 C763.45,442.71 765.35,442.27 767.27,441.69 L766.75,431.21 L766.75,431.21 Z" id="Path" fill="#A4ACB1"></path>
            <polygon id="Path" fill="#A4ACB1" points="794.99 442.66 807.15 442.66 807.15 397.51 794.99 397.51 794.99 414.85 785.54 414.85 785.54 397.51 773.38 397.51 773.38 442.66 785.54 442.66 785.54 424.28 794.99 424.28"></polygon>
            <path d="M841.62,442.66 L854.17,442.66 L839.81,397.51 L826.42,397.51 L811.41,442.66 L823.05,442.66 L825.96,433.08 L839.22,433.08 L841.62,442.66 L841.62,442.66 Z M836.96,424.42 L828.04,424.42 L832.89,406.68 L833.02,406.68 L836.96,424.42 L836.96,424.42 Z" id="Shape" fill="#A4ACB1"></path>
            <polygon id="Path" fill="#A4ACB1" points="858.43 442.66 870.32 442.66 870.32 424.54 884.43 424.54 884.43 415.62 870.32 415.62 870.32 406.43 885.08 406.43 885.08 397.51 858.43 397.51"></polygon>
            <polygon id="Path" fill="#A4ACB1" points="897.45 442.66 909.61 442.66 909.61 406.69 919.31 406.69 919.31 397.51 887.75 397.51 887.75 406.69 897.45 406.69"></polygon>
            <polygon id="Path" fill="#A4ACB1" points="924.35 442.66 952.88 442.66 952.88 433.74 936.25 433.74 936.25 424.03 951.26 424.03 951.26 415.11 936.25 415.11 936.25 406.43 952.03 406.43 952.03 397.51 924.35 397.51"></polygon>
            <polygon id="Path" fill="#A4ACB1" points="981.26 442.66 995.49 442.66 995.49 397.51 984.89 397.51 984.89 428.62 984.76 428.62 972.92 397.51 958.81 397.51 958.81 442.66 969.42 442.66 969.42 411.35 969.68 411.35"></polygon>
            <path d="M340.28,367.86 L346.05,367.86 L346.05,363.25 L346.18,363.25 C346.98,364.54 348.31,365.74 350.18,366.85 C352.04,367.96 354.43,368.56 357.35,368.63 C360.64,368.58 363.31,367.71 365.38,366.04 C367.45,364.36 368.98,362.19 369.95,359.51 C370.92,356.83 371.41,353.97 371.40015,350.92 C371.40015,347.95 370.88,345.22 369.85,342.72 C368.82,340.22 367.25,338.22 365.17,336.7 C363.08,335.18 360.45,334.4 357.29,334.36 C354.45,334.39 352.16,334.89 350.42,335.86 C348.68,336.83 347.35,338.08 346.44,339.62 L346.31,339.62 L346.31,319.73 L340.29,319.73 L340.29,367.86 L340.28,367.86 Z M364.99,351.37 C365.04,353.14 364.76,354.97 364.14,356.87 C363.53,358.76 362.54,360.37 361.19,361.7 C359.84,363.02 358.09,363.71 355.93,363.77 C353.67,363.72 351.83,363.07 350.41,361.82 C348.99,360.57 347.95,359.02 347.29,357.16 C346.63,355.3 346.3,353.44 346.31,351.57 C346.31,349.5 346.66,347.53 347.37,345.66 C348.08,343.8 349.15,342.27 350.58,341.08 C352.01,339.89 353.82,339.28 356,339.24 C358.18,339.28 359.93,339.89 361.27,341.07 C362.61,342.25 363.57,343.76 364.17,345.6 C364.77,347.44 365.04,349.36 364.99,351.37 L364.99,351.37 Z" id="Shape" fill="#000000"></path>
            <path d="M401.42,360.49 C400.61,361.16 399.24,361.86 397.32,362.58 C395.41,363.31 393.41,363.7 391.34,363.76 C388.39,363.71 385.88,362.7 383.8,360.74 C381.73,358.77 380.64,356.14 380.55,352.85 L403.91,352.85 C403.93,349.31 403.49,346.16 402.59,343.38 C401.69,340.61 400.18,338.43 398.07,336.83 C395.95,335.23 393.09,334.41 389.48,334.38 C384.79,334.47 381.08,336.01 378.34,339.02 C375.6,342.03 374.2,346 374.139784,350.93 C374.12,356.33 375.49,360.61 378.25,363.78 C381.01,366.94 385.29,368.57 391.08,368.64 C393.72,368.6 395.83,368.35 397.4,367.89 C398.97,367.43 400.31,366.97 401.41,366.52 L401.41,360.49 L401.42,360.49 Z M380.56,348.36 C380.7,346.91 381.09,345.5 381.73,344.11 C382.37,342.73 383.31,341.57 384.55,340.66 C385.79,339.75 387.4,339.27 389.35,339.24 C391.97,339.31 393.97,340.2 395.38,341.92 C396.78,343.64 397.49,345.79 397.51,348.36 L380.56,348.36 L380.56,348.36 Z" id="Shape" fill="#000000"></path>
            <path d="M408.76,367.86 L414.78,367.86 L414.78,352.97 C414.82,348.82 415.63,345.57 417.22,343.22 C418.81,340.87 420.97,339.67 423.7,339.63 C424.22,339.63 424.77,339.66 425.34,339.75 C425.92,339.83 426.48,339.99 427.03,340.21 L427.03,334.83 C426.42,334.7 425.82,334.59 425.23,334.51 C424.65,334.42 423.92,334.38 423.05,334.38 C421.28,334.41 419.62,334.96 418.08,336.02 C416.54,337.08 415.35,338.48 414.51,340.21 L414.38,340.21 L414.38,335.15 L408.74,335.15 L408.74,367.86 L408.76,367.86 Z" id="Path" fill="#000000"></path>
            <polygon id="Path" fill="#000000" points="431.24 367.86 437.27 367.86 437.27 319.74 431.24 319.74"></polygon>
            <path d="M445.85,367.86 L451.88,367.86 L451.88,335.14 L445.85,335.14 L445.85,367.86 L445.85,367.86 Z M452.26,321.02 L445.47,321.02 L445.47,327.81 L452.26,327.81 L452.26,321.02 L452.26,321.02 Z" id="Shape" fill="#000000"></path>
            <path d="M459.69,367.86 L465.71,367.86 L465.71,352.72 C465.7,348.68 466.5,345.43 468.11,343 C469.72,340.56 472.24,339.31 475.66,339.25 C478.25,339.4 480.07,340.43 481.1,342.35 C482.14,344.27 482.63,347.13 482.59,350.93 L482.59,367.87 L488.61,367.87 L488.61,348.43 C488.63,344 487.64,340.56 485.66,338.11 C483.67,335.66 480.57,334.42 476.36,334.38 C474.03,334.4 471.9,334.93 469.96,335.97 C468.02,337.01 466.58,338.47 465.63,340.34 L465.5,340.34 L465.5,335.15 L459.67,335.15 L459.67,367.86 L459.69,367.86 Z" id="Path" fill="#000000"></path>
            <polygon id="Path" fill="#000000" points="493.05 353.04 509.53 353.04 509.53 348.17 493.05 348.17"></polygon>
            <path d="M513.97,367.86 L519.74,367.86 L519.74,363.25 L519.87,363.25 C520.67,364.54 522.01,365.74 523.87,366.85 C525.73,367.96 528.12,368.56 531.04,368.63 C534.32,368.58 537,367.71 539.07,366.04 C541.14,364.36 542.67,362.19 543.64,359.51 C544.61,356.83 545.09,353.97 545.09,350.92 C545.09,347.95 544.57,345.22 543.54,342.72 C542.51,340.22 540.95,338.22 538.86,336.7 C536.77,335.18 534.14,334.4 530.98,334.36 C528.14,334.39 525.86,334.89 524.11,335.86 C522.36,336.83 521.04,338.08 520.13,339.62 L520,339.62 L520,319.73 L513.98,319.73 L513.98,367.86 L513.97,367.86 Z M538.68,351.37 C538.73,353.14 538.45,354.97 537.83,356.87 C537.22,358.76 536.23,360.37 534.88,361.7 C533.53,363.02 531.78,363.71 529.62,363.77 C527.36,363.72 525.52,363.07 524.1,361.82 C522.68,360.57 521.64,359.02 520.97,357.16 C520.31,355.3 519.98,353.44 519.99,351.57 C519.99,349.5 520.34,347.53 521.05,345.66 C521.76,343.8 522.83,342.27 524.26,341.08 C525.69,339.89 527.5,339.28 529.68,339.24 C531.85,339.28 533.61,339.89 534.95,341.07 C536.29,342.25 537.25,343.76 537.85,345.6 C538.46,347.44 538.73,349.36 538.68,351.37 L538.68,351.37 Z" id="Shape" fill="#000000"></path>
            <path d="M550.02,367.86 L556.04,367.86 L556.04,352.97 C556.07,348.82 556.89,345.57 558.48,343.22 C560.07,340.87 562.23,339.67 564.96,339.63 C565.48,339.63 566.03,339.66 566.61,339.75 C567.19,339.83 567.75,339.99 568.3,340.21 L568.3,334.83 C567.69,334.7 567.09,334.59 566.5,334.51 C565.92,334.42 565.19,334.38 564.32,334.38 C562.55,334.41 560.89,334.96 559.35,336.02 C557.81,337.08 556.62,338.48 555.78,340.21 L555.65,340.21 L555.65,335.15 L550.01,335.15 L550.01,367.86 L550.02,367.86 Z" id="Path" fill="#000000"></path>
            <path d="M573.59,342.58 C574.84,341.54 576.3,340.73 577.98,340.14 C579.66,339.55 581.36,339.25 583.09,339.24 C586.07,339.24 588.17,339.96 589.4,341.39 C590.63,342.82 591.22,344.95 591.18,347.78 C590.02,347.72 588.95,347.68 587.97,347.67 C586.99,347.66 585.92,347.65 584.76,347.65 C582.61,347.63 580.37,347.95 578.05,348.62 C575.72,349.28 573.75,350.41 572.11,351.98 C570.48,353.56 569.62,355.71 569.55,358.42 C569.61,361.96 570.73,364.55 572.9,366.19 C575.07,367.83 577.96,368.64 581.54,368.62 C584.29,368.54 586.5,367.95 588.15,366.87 C589.81,365.78 590.99,364.7 591.68,363.63 L591.81,363.63 L591.81,367.86 L597.45,367.86 C597.38,367.4 597.32,366.68 597.27,365.69 C597.22,364.7 597.19,363.28 597.19,361.45 L597.19,347.9 C597.23,343.43 596.21,340.06 594.13,337.79 C592.05,335.52 588.69,334.37 584.04,334.37 C581.95,334.39 580.01,334.67 578.21,335.24 C576.41,335.8 574.76,336.54 573.25,337.45 L573.59,342.58 L573.59,342.58 Z M591.18,355.16 C591.17,357.65 590.4,359.7 588.86,361.29 C587.32,362.88 585.06,363.71 582.06,363.76 C580.6,363.76 579.24,363.3 577.97,362.4 C576.71,361.49 576.04,360.17 575.95,358.43 C576.03,356.53 576.77,355.13 578.17,354.23 C579.57,353.33 581.15,352.74 582.91,352.48 C584.67,352.22 586.14,352.1 587.31,352.13 C587.95,352.14 588.59,352.16 589.23,352.19 C589.87,352.23 590.52,352.25 591.16,352.26 L591.16,355.16 L591.18,355.16 Z" id="Shape" fill="#000000"></path>
            <path d="M604.16,367.86 L610.18,367.86 L610.18,352.72 C610.17,348.68 610.96,345.43 612.58,343 C614.19,340.56 616.71,339.31 620.13,339.25 C622.72,339.4 624.54,340.43 625.57,342.35 C626.61,344.27 627.1,347.13 627.06,350.93 L627.06,367.87 L633.08,367.87 L633.08,348.43 C633.1,344 632.11,340.56 630.13,338.11 C628.14,335.66 625.04,334.42 620.83,334.38 C618.5,334.4 616.37,334.93 614.43,335.97 C612.49,337.01 611.05,338.47 610.1,340.34 L609.97,340.34 L609.97,335.15 L604.14,335.15 L604.14,367.86 L604.16,367.86 Z" id="Path" fill="#000000"></path>
            <path d="M663.38,367.86 L669.15,367.86 L669.15,319.74 L663.13,319.74 L663.13,339.63 L663,339.63 C662.09,338.09 660.76,336.84 659.02,335.87 C657.28,334.9 654.99,334.4 652.15,334.37 C648.98,334.41 646.36,335.19 644.27,336.71 C642.18,338.22 640.62,340.23 639.59,342.73 C638.56,345.22 638.039847,347.96 638.039847,350.93 C638.03,353.96 638.51,356.81 639.49,359.49 C640.46,362.17 641.99,364.35 644.06,366.04 C646.13,367.72 648.81,368.59 652.09,368.65 C655.01,368.58 657.4,367.99 659.26,366.87 C661.12,365.76 662.46,364.55 663.26,363.27 L663.39,363.27 L663.39,367.86 L663.38,367.86 Z M644.44,351.37 C644.39,349.34 644.66,347.41 645.26,345.57 C645.86,343.73 646.82,342.23 648.16,341.05 C649.5,339.88 651.25,339.27 653.43,339.23 C655.61,339.27 657.42,339.88 658.85,341.07 C660.29,342.26 661.36,343.79 662.06,345.65 C662.77,347.51 663.12,349.48 663.12,351.56 C663.13,353.43 662.8,355.29 662.14,357.15 C661.48,359.01 660.43,360.56 659.01,361.81 C657.59,363.06 655.75,363.71 653.49,363.76 C651.34,363.7 649.58,363.01 648.23,361.69 C646.88,360.37 645.9,358.76 645.28,356.86 C644.67,354.97 644.39,353.14 644.44,351.37 L644.44,351.37 Z" id="Shape" fill="#000000"></path>
            <path d="M701.35,360.49 C700.53,361.16 699.17,361.86 697.25,362.58 C695.33,363.31 693.34,363.7 691.27,363.76 C688.32,363.71 685.81,362.7 683.74,360.74 C681.66,358.77 680.58,356.14 680.49,352.85 L703.85,352.85 C703.87,349.31 703.44,346.16 702.53,343.38 C701.63,340.61 700.12,338.43 698,336.83 C695.89,335.23 693.02,334.41 689.41,334.38 C684.73,334.47 681.02,336.01 678.28,339.02 C675.54,342.03 674.14,346 674.079784,350.93 C674.06,356.33 675.43,360.61 678.19,363.78 C680.95,366.94 685.23,368.57 691.02,368.64 C693.67,368.6 695.77,368.35 697.34,367.89 C698.91,367.43 700.25,366.97 701.35,366.52 L701.35,360.49 L701.35,360.49 Z M680.49,348.36 C680.63,346.91 681.02,345.5 681.66,344.11 C682.3,342.73 683.24,341.57 684.48,340.66 C685.73,339.75 687.33,339.27 689.29,339.24 C691.9,339.31 693.91,340.2 695.32,341.92 C696.72,343.64 697.43,345.79 697.45,348.36 L680.49,348.36 L680.49,348.36 Z" id="Shape" fill="#000000"></path>
            <path d="M708.69,367.86 L714.71,367.86 L714.71,352.72 C714.69,348.68 715.5,345.43 717.11,343 C718.73,340.56 721.24,339.31 724.66,339.25 C727.25,339.4 729.06,340.43 730.1,342.35 C731.13,344.27 731.63,347.13 731.59,350.93 L731.59,367.87 L737.61,367.87 L737.61,348.43 C737.63,344 736.64,340.56 734.66,338.11 C732.67,335.66 729.57,334.42 725.36,334.38 C723.03,334.4 720.9,334.93 718.96,335.97 C717.02,337.01 715.58,338.47 714.64,340.34 L714.51,340.34 L714.51,335.15 L708.68,335.15 L708.68,367.86 L708.69,367.86 Z" id="Path" fill="#000000"></path>
            <path d="M744.74,367.86 L750.51,367.86 L750.51,363.25 L750.64,363.25 C751.44,364.54 752.77,365.74 754.64,366.85 C756.5,367.96 758.89,368.56 761.81,368.63 C765.1,368.58 767.77,367.71 769.85,366.04 C771.92,364.36 773.44,362.19 774.42,359.51 C775.39,356.83 775.88,353.97 775.87015,350.92 C775.87015,347.95 775.36,345.22 774.32,342.72 C773.28,340.22 771.72,338.22 769.63,336.7 C767.54,335.18 764.91,334.4 761.75,334.36 C758.92,334.39 756.62,334.89 754.88,335.86 C753.14,336.83 751.81,338.08 750.9,339.62 L750.77,339.62 L750.77,319.73 L744.75,319.73 L744.75,367.86 L744.74,367.86 Z M769.45,351.37 C769.5,353.14 769.22,354.97 768.6,356.87 C767.99,358.76 767,360.37 765.65,361.7 C764.3,363.02 762.55,363.71 760.39,363.77 C758.13,363.72 756.29,363.07 754.87,361.82 C753.45,360.57 752.41,359.02 751.75,357.16 C751.09,355.3 750.76,353.44 750.76,351.57 C750.76,349.5 751.11,347.53 751.82,345.66 C752.53,343.8 753.6,342.27 755.03,341.08 C756.47,339.89 758.27,339.28 760.45,339.24 C762.63,339.28 764.38,339.89 765.72,341.07 C767.06,342.25 768.03,343.76 768.62,345.6 C769.23,347.44 769.5,349.36 769.45,351.37 L769.45,351.37 Z" id="Shape" fill="#000000"></path>
            <path d="M809.73,335.14 L803.71,335.14 L803.71,350.28 C803.72,354.32 802.92,357.57 801.31,360 C799.7,362.44 797.18,363.69 793.76,363.75 C791.17,363.6 789.35,362.57 788.32,360.66 C787.29,358.74 786.79,355.88 786.82,352.08 L786.82,335.14 L780.8,335.14 L780.8,354.59 C780.78,359.02 781.77,362.46 783.75,364.91 C785.73,367.36 788.83,368.6 793.05,368.64 C795.38,368.62 797.51,368.1 799.44,367.05 C801.38,366.01 802.82,364.55 803.77,362.68 L803.9,362.68 L803.9,367.87 L809.73,367.87 L809.73,335.14 L809.73,335.14 Z" id="Path" fill="#000000"></path>
            <path d="M816.84,367.86 L822.86,367.86 L822.86,352.97 C822.9,348.82 823.71,345.57 825.3,343.22 C826.89,340.87 829.05,339.67 831.78,339.63 C832.3,339.63 832.85,339.66 833.43,339.75 C834.01,339.83 834.57,339.99 835.12,340.21 L835.12,334.83 C834.5,334.7 833.91,334.59 833.33,334.51 C832.74,334.42 832.02,334.38 831.15,334.38 C829.38,334.41 827.72,334.96 826.18,336.02 C824.64,337.08 823.45,338.48 822.61,340.21 L822.48,340.21 L822.48,335.15 L816.84,335.15 L816.84,367.86 L816.84,367.86 Z" id="Path" fill="#000000"></path>
            <path d="M867.49,335.14 L861.91,335.14 L861.91,340.01 L861.78,340.01 C860.91,338.23 859.6,336.85 857.88,335.87 C856.15,334.89 853.86,334.39 850.99,334.37 C847.7,334.43 844.97,335.31 842.81,337.01 C840.64,338.71 839.03,340.88 837.96,343.51 C836.89,346.14 836.36,348.89 836.369861,351.76 C836.369861,354.63 836.88,357.27 837.91,359.7 C838.94,362.13 840.49,364.08 842.56,365.57 C844.63,367.06 847.23,367.82 850.35,367.86 C852.47,367.86 854.5,367.44 856.44,366.6 C858.38,365.76 860.01,364.49 861.33,362.8 L861.46,362.8 L861.46,366 C861.43,369.5 860.54,372.24 858.77,374.22 C857,376.2 854.52,377.2 851.31,377.24 C849.17,377.25 847.22,377.02 845.47,376.56 C843.72,376.1 841.73,375.34 839.5,374.29 L838.86,379.87 C841.43,380.75 843.62,381.35 845.4,381.67 C847.19,381.99 848.92,382.14 850.6,382.12 C856.44,382.09 860.73,380.72 863.44,378.02 C866.16,375.32 867.5,371.47 867.47,366.46 L867.47,335.14 L867.49,335.14 Z M851.89,362.99 C849.04,362.89 846.81,361.74 845.21,359.53 C843.61,357.31 842.8,354.62 842.77,351.44 C842.77,349.53 843.11,347.65 843.78,345.79 C844.45,343.94 845.46,342.39 846.81,341.16 C848.16,339.93 849.85,339.28 851.89,339.24 C855.1,339.34 857.49,340.6 859.08,343.01 C860.67,345.42 861.46,348.38 861.46,351.89 C861.41,355.02 860.53,357.63 858.8,359.73 C857.07,361.82 854.77,362.91 851.89,362.99 L851.89,362.99 Z" id="Shape" fill="#000000"></path>
            <path d="M875.37,367.86 L881.39,367.86 L881.39,335.14 L875.37,335.14 L875.37,367.86 L875.37,367.86 Z M881.78,321.02 L874.99,321.02 L874.99,327.81 L881.78,327.81 L881.78,321.02 L881.78,321.02 Z" id="Shape" fill="#000000"></path>
            <path d="M886.45,366.84 C887.84,367.56 889.29,368.04 890.82,368.29 C892.34,368.54 893.88,368.65 895.43,368.63 C897.41,368.63 899.27,368.27 900.99,367.54 C902.71,366.81 904.11,365.69 905.19,364.18 C906.27,362.67 906.82,360.76 906.85,358.43 C906.78,355.87 906.04,353.92 904.63,352.58 C903.23,351.24 901.6,350.18 899.75,349.4 C897.91,348.63 896.28,347.8 894.87,346.93 C893.47,346.06 892.73,344.82 892.65,343.21 C892.7,341.86 893.28,340.86 894.39,340.21 C895.5,339.55 896.85,339.23 898.44,339.23 C899.24,339.25 900.3,339.42 901.64,339.75 C902.98,340.08 904.03,340.46 904.79,340.9 L905.3,335.64 C904.13,335.28 902.93,334.98 901.72,334.74 C900.5,334.5 899.2,334.38 897.8,334.36 C894.48,334.36 891.75,335.18 889.59,336.84 C887.44,338.5 886.32,341.03 886.25,344.43 C886.32,346.68 887.06,348.45 888.47,349.75 C889.87,351.04 891.5,352.11 893.34,352.95 C895.19,353.79 896.81,354.66 898.22,355.55 C899.62,356.44 900.36,357.62 900.44,359.07 C900.36,360.81 899.67,362.03 898.39,362.73 C897.11,363.44 895.73,363.77 894.27,363.75 C893.35,363.75 892.18,363.56 890.76,363.17 C889.34,362.79 888.01,362.21 886.77,361.44 L886.45,366.84 L886.45,366.84 Z" id="Path" fill="#000000"></path>
            <path d="M932.22,335.64 C931.31,335.28 930.18,334.98 928.83,334.74 C927.48,334.5 926.17,334.38 924.91,334.36 C919.83,334.45 915.8,336.06 912.82,339.19 C909.83,342.32 908.3,346.42 908.23,351.49 C908.25,354.65 908.96,357.52 910.36,360.1 C911.75,362.68 913.7,364.73 916.19,366.26 C918.69,367.79 921.59,368.58 924.91,368.62 C926.02,368.64 927.24,368.56 928.57,368.38 C929.9,368.2 931.2,367.84 932.48,367.27 L932.03,361.89 C931.08,362.5 930.02,362.96 928.86,363.28 C927.7,363.59 926.6,363.75 925.55,363.75 C922.97,363.71 920.88,363.08 919.27,361.87 C917.66,360.66 916.48,359.13 915.74,357.27 C915,355.41 914.63,353.48 914.64,351.49 C914.65,349.38 915.06,347.4 915.87,345.54 C916.69,343.69 917.88,342.18 919.44,341.02 C921.01,339.86 922.91,339.26 925.17,339.22 C926.14,339.22 927.18,339.33 928.3,339.57 C929.41,339.8 930.55,340.16 931.72,340.64 L932.22,335.64 L932.22,335.64 Z" id="Path" fill="#000000"></path>
            <path d="M936.25,367.86 L942.27,367.86 L942.27,352.72 C942.25,348.68 943.06,345.43 944.67,343 C946.28,340.56 948.8,339.31 952.22,339.25 C954.81,339.4 956.63,340.43 957.66,342.35 C958.69,344.27 959.19,347.13 959.15,350.93 L959.15,367.87 L965.17,367.87 L965.17,348.43 C965.19,344 964.2,340.56 962.22,338.11 C960.24,335.66 957.13,334.42 952.92,334.38 C950.62,334.39 948.57,334.87 946.76,335.81 C944.95,336.75 943.49,338.09 942.39,339.83 L942.26,339.83 L942.26,319.75 L936.24,319.75 L936.24,367.86 L936.25,367.86 Z" id="Path" fill="#000000"></path>
            <path d="M997.39,360.49 C996.58,361.16 995.21,361.86 993.29,362.58 C991.38,363.31 989.39,363.7 987.32,363.76 C984.37,363.71 981.85,362.7 979.78,360.74 C977.71,358.77 976.62,356.14 976.53,352.85 L999.89,352.85 C999.91,349.31 999.47,346.16 998.57,343.38 C997.67,340.61 996.16,338.43 994.05,336.83 C991.93,335.23 989.07,334.41 985.46,334.38 C980.77,334.47 977.06,336.01 974.32,339.02 C971.58,342.03 970.18,346 970.119784,350.93 C970.1,356.33 971.47,360.61 974.23,363.78 C977,366.94 981.27,368.57 987.06,368.64 C989.71,368.6 991.81,368.35 993.38,367.89 C994.95,367.43 996.29,366.97 997.39,366.52 L997.39,360.49 L997.39,360.49 Z M976.53,348.36 C976.67,346.91 977.06,345.5 977.7,344.11 C978.33,342.73 979.28,341.57 980.52,340.66 C981.76,339.75 983.37,339.27 985.33,339.24 C987.94,339.31 989.95,340.2 991.35,341.92 C992.76,343.64 993.47,345.79 993.48,348.36 L976.53,348.36 L976.53,348.36 Z" id="Shape" fill="#000000"></path>
        </g>
    </g>
</svg>